<?xml version="1.0" encoding="UTF-8" standalone="no"?>
<!-- Created with Inkscape (http://www.inkscape.org/) -->

<svg
   xmlns:dc="http://purl.org/dc/elements/1.1/"
   xmlns:cc="http://creativecommons.org/ns#"
   xmlns:rdf="http://www.w3.org/1999/02/22-rdf-syntax-ns#"
   xmlns:svg="http://www.w3.org/2000/svg"
   xmlns="http://www.w3.org/2000/svg"
   xmlns:sodipodi="http://sodipodi.sourceforge.net/DTD/sodipodi-0.dtd"
   xmlns:inkscape="http://www.inkscape.org/namespaces/inkscape"
   width="128"
   height="128"
   viewBox="0 0 128 128"
   id="svg2"
   version="1.1"
   inkscape:version="0.92.1 r15371"
   sodipodi:docname="button_clear_cell.svg">
  <defs
     id="defs4" />
  <sodipodi:namedview
     id="base"
     pagecolor="#ffffff"
     bordercolor="#666666"
     borderopacity="1.0"
     inkscape:pageopacity="0.0"
     inkscape:pageshadow="2"
     inkscape:zoom="5.6"
     inkscape:cx="36.79406"
     inkscape:cy="57.970704"
     inkscape:document-units="px"
     inkscape:current-layer="layer3"
     showgrid="false"
     units="px"
     inkscape:window-width="1920"
     inkscape:window-height="1177"
     inkscape:window-x="1912"
     inkscape:window-y="-8"
     inkscape:window-maximized="1" />
  <metadata
     id="metadata7">
    <rdf:RDF>
      <cc:Work
         rdf:about="">
        <dc:format>image/svg+xml</dc:format>
        <dc:type
           rdf:resource="http://purl.org/dc/dcmitype/StillImage" />
        <dc:title />
      </cc:Work>
    </rdf:RDF>
  </metadata>
  <g
     inkscape:groupmode="layer"
     id="layer3"
     inkscape:label="Layer 3"
     style="display:inline">
    <path
       style="color:#000000;clip-rule:nonzero;display:inline;overflow:visible;visibility:visible;opacity:1;isolation:auto;mix-blend-mode:normal;color-interpolation:sRGB;color-interpolation-filters:linearRGB;solid-color:#000000;solid-opacity:1;fill:#f6f6f6;fill-opacity:1;fill-rule:nonzero;stroke:none;stroke-width:2.87800002;stroke-linecap:round;stroke-linejoin:round;stroke-miterlimit:4;stroke-dasharray:none;stroke-dashoffset:0;stroke-opacity:1;color-rendering:auto;image-rendering:auto;shape-rendering:auto;text-rendering:auto;enable-background:accumulate"
       d="M 44.851019,75.055584 25.702045,86.111244 6.5530685,75.055584 v -22.11129 l 19.1489765,-11.05566 19.148977,11.05566 z"
       id="path4140-91"
       inkscape:connector-curvature="0" />
    <path
       style="color:#000000;clip-rule:nonzero;display:inline;overflow:visible;visibility:visible;opacity:1;isolation:auto;mix-blend-mode:normal;color-interpolation:sRGB;color-interpolation-filters:linearRGB;solid-color:#000000;solid-opacity:1;fill:#f6f6f6;fill-opacity:1;fill-rule:nonzero;stroke:none;stroke-width:2.87800002;stroke-linecap:round;stroke-linejoin:round;stroke-miterlimit:4;stroke-dasharray:none;stroke-dashoffset:0;stroke-opacity:1;color-rendering:auto;image-rendering:auto;shape-rendering:auto;text-rendering:auto;enable-background:accumulate"
       d="m 63.999996,41.888594 -19.148974,11.0557 -19.148977,-11.0557 V 19.777304 L 44.851022,8.7216443 63.999999,19.777304 Z"
       id="path4140-6-9"
       inkscape:connector-curvature="0" />
    <path
       style="color:#000000;clip-rule:nonzero;display:inline;overflow:visible;visibility:visible;opacity:1;isolation:auto;mix-blend-mode:normal;color-interpolation:sRGB;color-interpolation-filters:linearRGB;solid-color:#000000;solid-opacity:1;fill:#f6f6f6;fill-opacity:1;fill-rule:nonzero;stroke:none;stroke-width:2.87800002;stroke-linecap:round;stroke-linejoin:round;stroke-miterlimit:4;stroke-dasharray:none;stroke-dashoffset:0;stroke-opacity:1;color-rendering:auto;image-rendering:auto;shape-rendering:auto;text-rendering:auto;enable-background:accumulate"
       d="M 83.148972,75.055584 63.999998,86.111244 44.851021,75.055584 v -22.11129 l 19.148977,-11.05566 19.148977,11.05566 z"
       id="path4140-64-7"
       inkscape:connector-curvature="0" />
    <path
       style="color:#000000;clip-rule:nonzero;display:inline;overflow:visible;visibility:visible;opacity:1;isolation:auto;mix-blend-mode:normal;color-interpolation:sRGB;color-interpolation-filters:linearRGB;solid-color:#000000;solid-opacity:1;fill:#f6f6f6;fill-opacity:1;fill-rule:nonzero;stroke:none;stroke-width:2.87800002;stroke-linecap:round;stroke-linejoin:round;stroke-miterlimit:4;stroke-dasharray:none;stroke-dashoffset:0;stroke-opacity:1;color-rendering:auto;image-rendering:auto;shape-rendering:auto;text-rendering:auto;enable-background:accumulate"
       d="m 102.29795,41.888594 -19.148974,11.0557 -19.148977,-11.0557 V 19.777304 L 83.148976,8.7216443 102.29795,19.777304 Z"
       id="path4140-65-8"
       inkscape:connector-curvature="0" />
    <path
       style="color:#000000;clip-rule:nonzero;display:inline;overflow:visible;visibility:visible;opacity:1;isolation:auto;mix-blend-mode:normal;color-interpolation:sRGB;color-interpolation-filters:linearRGB;solid-color:#000000;solid-opacity:1;fill:#f6f6f6;fill-opacity:1;fill-rule:nonzero;stroke:none;stroke-width:2.87800002;stroke-linecap:round;stroke-linejoin:round;stroke-miterlimit:4;stroke-dasharray:none;stroke-dashoffset:0;stroke-opacity:1;color-rendering:auto;image-rendering:auto;shape-rendering:auto;text-rendering:auto;enable-background:accumulate"
       d="m 121.44692,75.055584 -19.14897,11.05566 -19.148978,-11.05566 v -22.11129 l 19.148978,-11.05566 19.14898,11.05566 z"
       id="path4140-9-2"
       inkscape:connector-curvature="0" />
    <path
       style="color:#000000;clip-rule:nonzero;display:inline;overflow:visible;visibility:visible;opacity:1;isolation:auto;mix-blend-mode:normal;color-interpolation:sRGB;color-interpolation-filters:linearRGB;solid-color:#000000;solid-opacity:1;fill:#f6f6f6;fill-opacity:1;fill-rule:nonzero;stroke:none;stroke-width:2.87800002;stroke-linecap:round;stroke-linejoin:round;stroke-miterlimit:4;stroke-dasharray:none;stroke-dashoffset:0;stroke-opacity:1;color-rendering:auto;image-rendering:auto;shape-rendering:auto;text-rendering:auto;enable-background:accumulate"
       d="m 102.29795,108.22254 -19.148976,11.0557 -19.148977,-11.0557 V 86.111244 l 19.148977,-11.05562 19.148976,11.05562 z"
       id="path4140-2-7"
       inkscape:connector-curvature="0" />
    <path
       style="color:#000000;clip-rule:nonzero;display:inline;overflow:visible;visibility:visible;opacity:1;isolation:auto;mix-blend-mode:normal;color-interpolation:sRGB;color-interpolation-filters:linearRGB;solid-color:#000000;solid-opacity:1;fill:#f6f6f6;fill-opacity:1;fill-rule:nonzero;stroke:none;stroke-width:2.87800002;stroke-linecap:round;stroke-linejoin:round;stroke-miterlimit:4;stroke-dasharray:none;stroke-dashoffset:0;stroke-opacity:1;color-rendering:auto;image-rendering:auto;shape-rendering:auto;text-rendering:auto;enable-background:accumulate"
       d="m 63.999995,108.22254 -19.148974,11.0557 -19.148977,-11.0557 V 86.111244 l 19.148977,-11.05562 19.148977,11.05562 z"
       id="path4140-7-8"
       inkscape:connector-curvature="0" />
  </g>
  <g
     inkscape:label="Layer 1"
     inkscape:groupmode="layer"
     id="layer1"
     transform="translate(0,-924.36216)"
     sodipodi:insensitive="true">
    <path
       style="color:#000000;font-style:normal;font-variant:normal;font-weight:normal;font-stretch:normal;font-size:medium;line-height:normal;font-family:sans-serif;font-variant-ligatures:normal;font-variant-position:normal;font-variant-caps:normal;font-variant-numeric:normal;font-variant-alternates:normal;font-feature-settings:normal;text-indent:0;text-align:start;text-decoration:none;text-decoration-line:none;text-decoration-style:solid;text-decoration-color:#000000;letter-spacing:normal;word-spacing:normal;text-transform:none;writing-mode:lr-tb;direction:ltr;text-orientation:mixed;dominant-baseline:auto;baseline-shift:baseline;text-anchor:start;white-space:normal;shape-padding:0;clip-rule:nonzero;display:inline;overflow:visible;visibility:visible;opacity:1;isolation:auto;mix-blend-mode:normal;color-interpolation:sRGB;color-interpolation-filters:linearRGB;solid-color:#000000;solid-opacity:1;vector-effect:none;fill:#000000;fill-opacity:1;fill-rule:nonzero;stroke:none;stroke-width:2.87801313;stroke-linecap:round;stroke-linejoin:round;stroke-miterlimit:4;stroke-dasharray:none;stroke-dashoffset:0;stroke-opacity:1;color-rendering:auto;image-rendering:auto;shape-rendering:auto;text-rendering:auto;enable-background:accumulate"
       d="m 25.736328,964.8125 a 1.4391505,1.4391505 0 0 0 -0.753906,0.19141 L 5.8339844,976.06055 a 1.4391505,1.4391505 0 0 0 -0.7207032,1.24609 v 22.11133 a 1.4391505,1.4391505 0 0 0 0.7207032,1.24613 l 19.1484376,11.0547 a 1.4391505,1.4391505 0 0 0 1.439453,0 l 19.148437,-11.0547 a 1.4391505,1.4391505 0 0 0 0.71875,-1.24613 v -22.11133 a 1.4391505,1.4391505 0 0 0 -0.71875,-1.24609 L 26.421875,965.00391 a 1.4391505,1.4391505 0 0 0 -0.685547,-0.19141 z m -0.03516,3.09961 17.710937,10.22461 v 20.44922 L 25.701172,1008.8125 7.9921875,998.58789 v -20.45117 z"
       id="path4140"
       inkscape:connector-curvature="0" />
    <path
       style="color:#000000;font-style:normal;font-variant:normal;font-weight:normal;font-stretch:normal;font-size:medium;line-height:normal;font-family:sans-serif;font-variant-ligatures:normal;font-variant-position:normal;font-variant-caps:normal;font-variant-numeric:normal;font-variant-alternates:normal;font-feature-settings:normal;text-indent:0;text-align:start;text-decoration:none;text-decoration-line:none;text-decoration-style:solid;text-decoration-color:#000000;letter-spacing:normal;word-spacing:normal;text-transform:none;writing-mode:lr-tb;direction:ltr;text-orientation:mixed;dominant-baseline:auto;baseline-shift:baseline;text-anchor:start;white-space:normal;shape-padding:0;clip-rule:nonzero;display:inline;overflow:visible;visibility:visible;opacity:1;isolation:auto;mix-blend-mode:normal;color-interpolation:sRGB;color-interpolation-filters:linearRGB;solid-color:#000000;solid-opacity:1;vector-effect:none;fill:#000000;fill-opacity:1;fill-rule:nonzero;stroke:none;stroke-width:2.87801313;stroke-linecap:round;stroke-linejoin:round;stroke-miterlimit:4;stroke-dasharray:none;stroke-dashoffset:0;stroke-opacity:1;color-rendering:auto;image-rendering:auto;shape-rendering:auto;text-rendering:auto;enable-background:accumulate"
       d="m 44.884766,931.64453 a 1.4391505,1.4391505 0 0 0 -0.753907,0.19336 l -19.148437,11.05469 a 1.4391505,1.4391505 0 0 0 -0.71875,1.24609 V 966.25 a 1.4391505,1.4391505 0 0 0 0.71875,1.24609 l 19.148437,11.05664 a 1.4391505,1.4391505 0 0 0 1.439453,0 L 64.71875,967.49609 A 1.4391505,1.4391505 0 0 0 65.439453,966.25 V 944.13867 A 1.4391505,1.4391505 0 0 0 64.71875,942.89258 L 45.570312,931.83789 a 1.4391505,1.4391505 0 0 0 -0.685546,-0.19336 z m -0.0332,3.10156 17.708985,10.22461 v 20.44922 L 44.851562,975.64453 27.140625,965.41992 V 944.9707 Z"
       id="path4140-6"
       inkscape:connector-curvature="0" />
    <path
       style="color:#000000;font-style:normal;font-variant:normal;font-weight:normal;font-stretch:normal;font-size:medium;line-height:normal;font-family:sans-serif;font-variant-ligatures:normal;font-variant-position:normal;font-variant-caps:normal;font-variant-numeric:normal;font-variant-alternates:normal;font-feature-settings:normal;text-indent:0;text-align:start;text-decoration:none;text-decoration-line:none;text-decoration-style:solid;text-decoration-color:#000000;letter-spacing:normal;word-spacing:normal;text-transform:none;writing-mode:lr-tb;direction:ltr;text-orientation:mixed;dominant-baseline:auto;baseline-shift:baseline;text-anchor:start;white-space:normal;shape-padding:0;clip-rule:nonzero;display:inline;overflow:visible;visibility:visible;opacity:1;isolation:auto;mix-blend-mode:normal;color-interpolation:sRGB;color-interpolation-filters:linearRGB;solid-color:#000000;solid-opacity:1;vector-effect:none;fill:#000000;fill-opacity:1;fill-rule:nonzero;stroke:none;stroke-width:2.87801313;stroke-linecap:round;stroke-linejoin:round;stroke-miterlimit:4;stroke-dasharray:none;stroke-dashoffset:0;stroke-opacity:1;color-rendering:auto;image-rendering:auto;shape-rendering:auto;text-rendering:auto;enable-background:accumulate"
       d="m 64.033203,964.8125 a 1.4391505,1.4391505 0 0 0 -0.751953,0.19141 l -19.150391,11.05664 a 1.4391505,1.4391505 0 0 0 -0.71875,1.24609 v 22.11133 a 1.4391505,1.4391505 0 0 0 0.71875,1.24613 l 19.150391,11.0547 a 1.4391505,1.4391505 0 0 0 1.4375,0 l 19.150391,-11.0547 a 1.4391505,1.4391505 0 0 0 0.71875,-1.24613 v -22.11133 a 1.4391505,1.4391505 0 0 0 -0.71875,-1.24609 L 64.71875,965.00391 A 1.4391505,1.4391505 0 0 0 64.033203,964.8125 Z M 64,967.91211 81.710938,978.13672 v 20.44922 L 64,1008.8125 46.289062,998.58789 v -20.45117 z"
       id="path4140-64"
       inkscape:connector-curvature="0" />
    <path
       style="color:#000000;font-style:normal;font-variant:normal;font-weight:normal;font-stretch:normal;font-size:medium;line-height:normal;font-family:sans-serif;font-variant-ligatures:normal;font-variant-position:normal;font-variant-caps:normal;font-variant-numeric:normal;font-variant-alternates:normal;font-feature-settings:normal;text-indent:0;text-align:start;text-decoration:none;text-decoration-line:none;text-decoration-style:solid;text-decoration-color:#000000;letter-spacing:normal;word-spacing:normal;text-transform:none;writing-mode:lr-tb;direction:ltr;text-orientation:mixed;dominant-baseline:auto;baseline-shift:baseline;text-anchor:start;white-space:normal;shape-padding:0;clip-rule:nonzero;display:inline;overflow:visible;visibility:visible;opacity:1;isolation:auto;mix-blend-mode:normal;color-interpolation:sRGB;color-interpolation-filters:linearRGB;solid-color:#000000;solid-opacity:1;vector-effect:none;fill:#000000;fill-opacity:1;fill-rule:nonzero;stroke:none;stroke-width:2.87801313;stroke-linecap:round;stroke-linejoin:round;stroke-miterlimit:4;stroke-dasharray:none;stroke-dashoffset:0;stroke-opacity:1;color-rendering:auto;image-rendering:auto;shape-rendering:auto;text-rendering:auto;enable-background:accumulate"
       d="m 83.183594,931.64453 a 1.4391505,1.4391505 0 0 0 -0.753906,0.19336 L 63.28125,942.89258 a 1.4391505,1.4391505 0 0 0 -0.720703,1.24609 V 966.25 a 1.4391505,1.4391505 0 0 0 0.720703,1.24609 l 19.148438,11.05664 a 1.4391505,1.4391505 0 0 0 1.439453,0 l 19.148439,-11.05664 a 1.4391505,1.4391505 0 0 0 0.71875,-1.24609 v -22.11133 a 1.4391505,1.4391505 0 0 0 -0.71875,-1.24609 L 83.869141,931.83789 a 1.4391505,1.4391505 0 0 0 -0.685547,-0.19336 z m -0.03516,3.10156 17.710946,10.22461 v 20.44727 L 83.148438,975.64453 65.439453,965.41992 V 944.9707 Z"
       id="path4140-65"
       inkscape:connector-curvature="0" />
    <path
       style="color:#000000;font-style:normal;font-variant:normal;font-weight:normal;font-stretch:normal;font-size:medium;line-height:normal;font-family:sans-serif;font-variant-ligatures:normal;font-variant-position:normal;font-variant-caps:normal;font-variant-numeric:normal;font-variant-alternates:normal;font-feature-settings:normal;text-indent:0;text-align:start;text-decoration:none;text-decoration-line:none;text-decoration-style:solid;text-decoration-color:#000000;letter-spacing:normal;word-spacing:normal;text-transform:none;writing-mode:lr-tb;direction:ltr;text-orientation:mixed;dominant-baseline:auto;baseline-shift:baseline;text-anchor:start;white-space:normal;shape-padding:0;clip-rule:nonzero;display:inline;overflow:visible;visibility:visible;opacity:1;isolation:auto;mix-blend-mode:normal;color-interpolation:sRGB;color-interpolation-filters:linearRGB;solid-color:#000000;solid-opacity:1;vector-effect:none;fill:#000000;fill-opacity:1;fill-rule:nonzero;stroke:none;stroke-width:2.87801313;stroke-linecap:round;stroke-linejoin:round;stroke-miterlimit:4;stroke-dasharray:none;stroke-dashoffset:0;stroke-opacity:1;color-rendering:auto;image-rendering:auto;shape-rendering:auto;text-rendering:auto;enable-background:accumulate"
       d="m 102.33203,964.8125 a 1.4391505,1.4391505 0 0 0 -0.75391,0.19141 l -19.148432,11.05664 a 1.4391505,1.4391505 0 0 0 -0.71875,1.24609 v 22.11133 a 1.4391505,1.4391505 0 0 0 0.71875,1.24613 l 19.148432,11.0547 a 1.4391505,1.4391505 0 0 0 1.43946,0 l 19.14844,-11.0547 a 1.4391505,1.4391505 0 0 0 0.7207,-1.24613 v -22.11133 a 1.4391505,1.4391505 0 0 0 -0.7207,-1.24609 l -19.14844,-11.05664 a 1.4391505,1.4391505 0 0 0 -0.68555,-0.19141 z m -0.0332,3.09961 17.70898,10.22461 v 20.44922 l -17.70898,10.22656 -17.710939,-10.22461 v -20.45117 z"
       id="path4140-9"
       inkscape:connector-curvature="0" />
    <path
       style="color:#000000;font-style:normal;font-variant:normal;font-weight:normal;font-stretch:normal;font-size:medium;line-height:normal;font-family:sans-serif;font-variant-ligatures:normal;font-variant-position:normal;font-variant-caps:normal;font-variant-numeric:normal;font-variant-alternates:normal;font-feature-settings:normal;text-indent:0;text-align:start;text-decoration:none;text-decoration-line:none;text-decoration-style:solid;text-decoration-color:#000000;letter-spacing:normal;word-spacing:normal;text-transform:none;writing-mode:lr-tb;direction:ltr;text-orientation:mixed;dominant-baseline:auto;baseline-shift:baseline;text-anchor:start;white-space:normal;shape-padding:0;clip-rule:nonzero;display:inline;overflow:visible;visibility:visible;opacity:1;isolation:auto;mix-blend-mode:normal;color-interpolation:sRGB;color-interpolation-filters:linearRGB;solid-color:#000000;solid-opacity:1;vector-effect:none;fill:#000000;fill-opacity:1;fill-rule:nonzero;stroke:none;stroke-width:2.87801313;stroke-linecap:round;stroke-linejoin:round;stroke-miterlimit:4;stroke-dasharray:none;stroke-dashoffset:0;stroke-opacity:1;color-rendering:auto;image-rendering:auto;shape-rendering:auto;text-rendering:auto;enable-background:accumulate"
       d="m 83.183594,997.97852 a 1.4391505,1.4391505 0 0 0 -0.753906,0.19336 L 63.28125,1009.2266 a 1.4391505,1.4391505 0 0 0 -0.720703,1.2461 v 22.1113 a 1.4391505,1.4391505 0 0 0 0.720703,1.2461 l 19.148438,11.0566 a 1.4391505,1.4391505 0 0 0 1.439453,0 l 19.148439,-11.0566 a 1.4391505,1.4391505 0 0 0 0.71875,-1.2461 v -22.1113 a 1.4391505,1.4391505 0 0 0 -0.71875,-1.2461 L 83.869141,998.17188 a 1.4391505,1.4391505 0 0 0 -0.685547,-0.19336 z m -0.03516,3.10158 17.710946,10.2246 v 20.4473 l -17.710946,10.2265 -17.708985,-10.2246 v -20.4492 z"
       id="path4140-2"
       inkscape:connector-curvature="0" />
    <path
       style="color:#000000;font-style:normal;font-variant:normal;font-weight:normal;font-stretch:normal;font-size:medium;line-height:normal;font-family:sans-serif;font-variant-ligatures:normal;font-variant-position:normal;font-variant-caps:normal;font-variant-numeric:normal;font-variant-alternates:normal;font-feature-settings:normal;text-indent:0;text-align:start;text-decoration:none;text-decoration-line:none;text-decoration-style:solid;text-decoration-color:#000000;letter-spacing:normal;word-spacing:normal;text-transform:none;writing-mode:lr-tb;direction:ltr;text-orientation:mixed;dominant-baseline:auto;baseline-shift:baseline;text-anchor:start;white-space:normal;shape-padding:0;clip-rule:nonzero;display:inline;overflow:visible;visibility:visible;opacity:1;isolation:auto;mix-blend-mode:normal;color-interpolation:sRGB;color-interpolation-filters:linearRGB;solid-color:#000000;solid-opacity:1;vector-effect:none;fill:#000000;fill-opacity:1;fill-rule:nonzero;stroke:none;stroke-width:2.87801313;stroke-linecap:round;stroke-linejoin:round;stroke-miterlimit:4;stroke-dasharray:none;stroke-dashoffset:0;stroke-opacity:1;color-rendering:auto;image-rendering:auto;shape-rendering:auto;text-rendering:auto;enable-background:accumulate"
       d="m 44.884766,997.97852 a 1.4391505,1.4391505 0 0 0 -0.753907,0.19336 l -19.148437,11.05472 a 1.4391505,1.4391505 0 0 0 -0.71875,1.2461 v 22.1113 a 1.4391505,1.4391505 0 0 0 0.71875,1.2461 l 19.148437,11.0566 a 1.4391505,1.4391505 0 0 0 1.439453,0 l 19.148438,-11.0566 a 1.4391505,1.4391505 0 0 0 0.720703,-1.2461 v -22.1113 a 1.4391505,1.4391505 0 0 0 -0.720703,-1.2461 L 45.570312,998.17188 a 1.4391505,1.4391505 0 0 0 -0.685546,-0.19336 z m -0.0332,3.10158 17.708985,10.2246 v 20.4492 l -17.708985,10.2246 -17.710937,-10.2246 v -20.4492 z"
       id="path4140-7"
       inkscape:connector-curvature="0" />
  </g>
  <g
     inkscape:groupmode="layer"
     id="layer2"
     inkscape:label="Layer 2"
     style="display:inline;opacity:1"
     sodipodi:insensitive="true">
    <path
       style="display:inline;opacity:1;fill:#ff0000;fill-rule:evenodd;stroke:none;stroke-width:2.88866282;stroke-linecap:butt;stroke-linejoin:miter;stroke-miterlimit:4;stroke-dasharray:none;stroke-opacity:1"
       d="m 28.342736,8.342976 c -2.114085,0.00677 -4.416164,0.6608041 -6.882125,2.25644 -10.328985,6.683452 0.513341,20.113251 0.513341,20.113251 L 40.936448,56.585495 C 22.129426,72.851859 8.1881829,89.299589 5.6655858,92.662963 1.2892477,98.498062 1.6542482,100.68442 3.1129939,103.23728 8.0363923,107.6136 11.135655,102.87258 18.611875,96.490554 22.112515,93.758285 36.323296,83.517299 53.217083,73.339513 L 82.835579,113.7493 c 0,0 5.672106,7.99437 9.282399,5.41557 3.610291,-2.57893 0,-9.02583 0,-9.02583 L 67.55671,65.154295 c 15.315706,-8.242878 31.0193,-14.925799 42.0458,-15.160402 17.14062,-0.364705 17.14099,-18.599501 15.68219,-21.881744 -0.91173,-2.051414 -4.24434,-6.669257 -13.56115,-7.082392 -5.59008,-0.247884 -13.33548,1.017926 -24.002794,5.25749 C 76.948019,30.515809 66.207465,37.029372 56.204035,44.358462 L 43.122367,20.397963 c 0,0 -5.618608,-12.0869203 -14.779631,-12.054987 z"
       id="path841-3"
       inkscape:connector-curvature="0" />
    <path
       style="color:#000000;font-style:normal;font-variant:normal;font-weight:normal;font-stretch:normal;font-size:medium;line-height:normal;font-family:sans-serif;font-variant-ligatures:normal;font-variant-position:normal;font-variant-caps:normal;font-variant-numeric:normal;font-variant-alternates:normal;font-feature-settings:normal;text-indent:0;text-align:start;text-decoration:none;text-decoration-line:none;text-decoration-style:solid;text-decoration-color:#000000;letter-spacing:normal;word-spacing:normal;text-transform:none;writing-mode:lr-tb;direction:ltr;text-orientation:mixed;dominant-baseline:auto;baseline-shift:baseline;text-anchor:start;white-space:normal;shape-padding:0;clip-rule:nonzero;display:inline;overflow:visible;visibility:visible;opacity:1;isolation:auto;mix-blend-mode:normal;color-interpolation:sRGB;color-interpolation-filters:linearRGB;solid-color:#000000;solid-opacity:1;vector-effect:none;fill:#000000;fill-opacity:1;fill-rule:evenodd;stroke:none;stroke-width:2.88866282;stroke-linecap:butt;stroke-linejoin:miter;stroke-miterlimit:4;stroke-dasharray:none;stroke-dashoffset:0;stroke-opacity:1;color-rendering:auto;image-rendering:auto;shape-rendering:auto;text-rendering:auto;enable-background:accumulate"
       d="m 28.337891,6.8984375 c -2.408612,0.00771 -5.00307,0.7677105 -7.66211,2.4882813 -2.864231,1.8533232 -4.404934,4.3467812 -4.910156,6.8945312 -0.505222,2.54775 -0.05078,5.093727 0.710937,7.34375 1.523446,4.500045 4.373047,7.994141 4.373047,7.994141 l -0.04102,-0.05273 18.199218,24.830078 C 20.644574,72.436408 7.1582586,88.265644 4.5097656,91.796875 2.258079,94.799114 1.1160958,96.961489 0.77734375,98.9375 0.43859172,100.91351 1.067627,102.56754 1.859375,103.95312 l 0.1171875,0.20704 0.1777344,0.15625 c 1.3838717,1.23009 2.819575,1.95408 4.3125,2.05078 1.4929249,0.0967 2.8885126,-0.43184 4.1972651,-1.24024 2.611368,-1.61299 5.196304,-4.38629 8.861329,-7.517575 3.320814,-2.590147 17.063397,-12.44026 33.330078,-22.320313 l 28.802734,39.296878 c 0,0 1.476143,2.09924 3.5,3.91406 1.011929,0.90741 2.162556,1.76858 3.482422,2.25977 1.319866,0.49118 2.981064,0.5339 4.316406,-0.41993 1.226824,-0.87635 1.88887,-2.17493 2.107422,-3.42382 0.218552,-1.2489 0.06834,-2.47051 -0.185547,-3.5586 -0.505976,-2.16847 -1.487161,-3.89785 -1.49414,-3.91015 l -0.002,-0.004 -23.84375,-43.673829 c 14.8265,-7.874705 29.918935,-14.115549 40.093744,-14.332031 9.08214,-0.193243 14.0209,-5.36632 16.13086,-10.763672 1.05498,-2.698676 1.47418,-5.447631 1.54102,-7.767578 0.0668,-2.319947 -0.13293,-4.106716 -0.69922,-5.380859 -1.11553,-2.50997 -5.04093,-7.505893 -14.81836,-7.939453 -5.86646,-0.26014 -13.800994,1.067628 -24.599606,5.359374 -10.455887,4.104956 -20.79599,10.322909 -30.486328,17.306641 l -12.310547,-22.546875 0.04102,0.08398 c 0,0 -1.472381,-3.182221 -4.160157,-6.363281 C 37.583709,10.244721 33.55463,6.8802531 28.337891,6.8984375 Z m 0.0098,2.8886719 c 3.944284,-0.013749 7.305013,2.6494896 9.716797,5.5039066 2.411784,2.854416 3.748047,5.714843 3.748047,5.714843 l 0.01953,0.04297 13.894531,25.449219 1.332032,-0.974609 C 66.993567,38.244529 77.640989,31.794403 88.248081,27.63086 h 0.0039 l 0.002,-0.002 c 10.536017,-4.187381 18.092549,-5.391878 23.406259,-5.15625 8.85618,0.39271 11.59675,4.633704 12.30468,6.226563 0.16311,0.366977 0.50976,2.089442 0.45118,4.123047 -0.0586,2.033605 -0.43842,4.482936 -1.34375,6.798828 -1.81069,4.631782 -5.44152,8.758225 -13.5,8.929687 -11.580542,0.246391 -27.307597,7.048291 -42.699228,15.332031 l -1.28125,0.6875 25.261719,46.267574 0.0039,0.008 c 0,0 0.812231,1.47596 1.207031,3.16797 0.1974,0.84601 0.27421,1.71907 0.154297,2.4043 -0.119913,0.68523 -0.361131,1.15915 -0.939453,1.57226 -0.469805,0.33558 -0.871811,0.34498 -1.630859,0.0625 -0.759049,-0.28247 -1.703163,-0.93429 -2.560547,-1.70312 -1.714769,-1.53766 -3.074219,-3.43555 -3.074219,-3.43555 l -0.0059,-0.01 -30.40625,-41.482421 -1.128906,0.679687 c -16.95395,10.214032 -31.134743,20.428273 -34.75,23.25 l -0.02539,0.01953 -0.02344,0.02148 c -3.797476,3.24169 -6.495314,6.022194 -8.5273436,7.277344 -1.016015,0.62758 -1.785663,0.86217 -2.4921875,0.81641 -0.659768,-0.0427 -1.4200265,-0.37758 -2.3925781,-1.19531 C 3.698899,101.2697 3.4325241,100.54853 3.625,99.425781 3.8331458,98.211624 4.695661,96.362157 6.8203125,93.529297 9.1664529,90.401192 23.171082,73.859991 41.880859,57.677734 l 1.007813,-0.871093 -19.769531,-26.97461 -0.02148,-0.02734 c 0,0 -2.569294,-3.219752 -3.884765,-7.105469 -0.657736,-1.942859 -0.980151,-4.007363 -0.613282,-5.857422 0.366869,-1.850059 1.346223,-3.540894 3.646485,-5.029297 2.272882,-1.470702 4.282003,-2.0195638 6.101562,-2.0253906 z"
       id="path841"
       inkscape:connector-curvature="0" />
    <path
       style="color:#000000;font-style:normal;font-variant:normal;font-weight:normal;font-stretch:normal;font-size:medium;line-height:normal;font-family:sans-serif;font-variant-ligatures:normal;font-variant-position:normal;font-variant-caps:normal;font-variant-numeric:normal;font-variant-alternates:normal;font-feature-settings:normal;text-indent:0;text-align:start;text-decoration:none;text-decoration-line:none;text-decoration-style:solid;text-decoration-color:#000000;letter-spacing:normal;word-spacing:normal;text-transform:none;writing-mode:lr-tb;direction:ltr;text-orientation:mixed;dominant-baseline:auto;baseline-shift:baseline;text-anchor:start;white-space:normal;shape-padding:0;clip-rule:nonzero;display:inline;overflow:visible;visibility:visible;opacity:1;isolation:auto;mix-blend-mode:normal;color-interpolation:sRGB;color-interpolation-filters:linearRGB;solid-color:#000000;solid-opacity:1;vector-effect:none;fill:#ffffff;fill-opacity:0.59607843;fill-rule:evenodd;stroke:none;stroke-width:4.33235025;stroke-linecap:round;stroke-linejoin:round;stroke-miterlimit:4;stroke-dasharray:none;stroke-dashoffset:0;stroke-opacity:1;color-rendering:auto;image-rendering:auto;shape-rendering:auto;text-rendering:auto;enable-background:accumulate"
       d="m 110.63281,23.357422 c -3.9734,0.0523 -8.75895,0.818686 -14.117185,2.300781 -10.71648,2.964191 -23.713258,8.811349 -36.460937,17.849609 a 2.1663917,2.1663917 0 1 0 2.505859,3.533204 c 12.331551,-8.74322 24.941617,-14.394078 35.111328,-17.207032 5.084855,-1.406477 9.563645,-2.099067 13.017575,-2.144531 3.45394,-0.04546 5.82053,0.678598 6.6543,1.365235 a 2.1666654,2.1666654 0 1 0 2.75391,-3.345704 c -2.26613,-1.866219 -5.49145,-2.403864 -9.46485,-2.351562 z"
       id="path847"
       inkscape:connector-curvature="0" />
    <path
       style="color:#000000;font-style:normal;font-variant:normal;font-weight:normal;font-stretch:normal;font-size:medium;line-height:normal;font-family:sans-serif;font-variant-ligatures:normal;font-variant-position:normal;font-variant-caps:normal;font-variant-numeric:normal;font-variant-alternates:normal;font-feature-settings:normal;text-indent:0;text-align:start;text-decoration:none;text-decoration-line:none;text-decoration-style:solid;text-decoration-color:#000000;letter-spacing:normal;word-spacing:normal;text-transform:none;writing-mode:lr-tb;direction:ltr;text-orientation:mixed;dominant-baseline:auto;baseline-shift:baseline;text-anchor:start;white-space:normal;shape-padding:0;clip-rule:nonzero;display:inline;overflow:visible;visibility:visible;opacity:1;isolation:auto;mix-blend-mode:normal;color-interpolation:sRGB;color-interpolation-filters:linearRGB;solid-color:#000000;solid-opacity:1;vector-effect:none;fill:#ffffff;fill-opacity:0.59607843;fill-rule:evenodd;stroke:none;stroke-width:2.16617513;stroke-linecap:round;stroke-linejoin:round;stroke-miterlimit:4;stroke-dasharray:none;stroke-dashoffset:0;stroke-opacity:1;color-rendering:auto;image-rendering:auto;shape-rendering:auto;text-rendering:auto;enable-background:accumulate"
       d="m 41.619141,59.292969 a 1.0831959,1.0831959 0 0 0 -0.759766,0.291015 c 0,0 -8.309289,7.533036 -17.080078,16.121094 -4.385395,4.294029 -8.886341,8.851423 -12.535156,12.878906 -3.6488162,4.027484 -6.4275458,7.414935 -7.4843754,9.845704 a 1.0831959,1.0831959 0 1 0 1.9863282,0.863281 c 0.7666429,-1.763323 3.5040275,-5.28087 7.1035152,-9.253907 3.599488,-3.973036 8.078039,-8.510823 12.445313,-12.787109 8.734549,-8.552573 17.019531,-16.0625 17.019531,-16.0625 a 1.0831959,1.0831959 0 0 0 -0.695312,-1.896484 z"
       id="path849"
       inkscape:connector-curvature="0" />
    <path
       style="color:#000000;font-style:normal;font-variant:normal;font-weight:normal;font-stretch:normal;font-size:medium;line-height:normal;font-family:sans-serif;font-variant-ligatures:normal;font-variant-position:normal;font-variant-caps:normal;font-variant-numeric:normal;font-variant-alternates:normal;font-feature-settings:normal;text-indent:0;text-align:start;text-decoration:none;text-decoration-line:none;text-decoration-style:solid;text-decoration-color:#000000;letter-spacing:normal;word-spacing:normal;text-transform:none;writing-mode:lr-tb;direction:ltr;text-orientation:mixed;dominant-baseline:auto;baseline-shift:baseline;text-anchor:start;white-space:normal;shape-padding:0;clip-rule:nonzero;display:inline;overflow:visible;visibility:visible;opacity:1;isolation:auto;mix-blend-mode:normal;color-interpolation:sRGB;color-interpolation-filters:linearRGB;solid-color:#000000;solid-opacity:1;vector-effect:none;fill:#ffffff;fill-opacity:0.59607843;fill-rule:evenodd;stroke:none;stroke-width:2.88823366;stroke-linecap:round;stroke-linejoin:round;stroke-miterlimit:4;stroke-dasharray:none;stroke-dashoffset:0;stroke-opacity:1;color-rendering:auto;image-rendering:auto;shape-rendering:auto;text-rendering:auto;enable-background:accumulate"
       d="m 29.515625,10.128906 c -5.523893,-0.6517299 -10.697444,3.56917 -11.068359,9.31836 a 1.4442612,1.4442612 0 1 0 2.880859,0.1875 c 0.305485,-4.735024 4.958573,-7.967378 9.533203,-6.220704 a 1.4444056,1.4444056 0 1 0 1.029297,-2.699218 c -0.790451,-0.301809 -1.585872,-0.492833 -2.375,-0.585938 z"
       id="path851"
       inkscape:connector-curvature="0" />
  </g>
</svg>
