<?xml version="1.0" encoding="UTF-8" standalone="no"?>
<svg
   xmlns:dc="http://purl.org/dc/elements/1.1/"
   xmlns:cc="http://creativecommons.org/ns#"
   xmlns:rdf="http://www.w3.org/1999/02/22-rdf-syntax-ns#"
   xmlns:svg="http://www.w3.org/2000/svg"
   xmlns="http://www.w3.org/2000/svg"
   xmlns:sodipodi="http://sodipodi.sourceforge.net/DTD/sodipodi-0.dtd"
   xmlns:inkscape="http://www.inkscape.org/namespaces/inkscape"
   version="1.1"
   id="svg2"
   viewBox="0 0 128 128"
   height="128"
   width="128"
   sodipodi:docname="button_brain.svg"
   inkscape:version="0.92.1 r15371">
  <sodipodi:namedview
     pagecolor="#ffffff"
     bordercolor="#666666"
     borderopacity="1"
     objecttolerance="10"
     gridtolerance="10"
     guidetolerance="10"
     inkscape:pageopacity="0"
     inkscape:pageshadow="2"
     inkscape:window-width="1858"
     inkscape:window-height="1177"
     id="namedview11"
     showgrid="false"
     inkscape:zoom="3.6875"
     inkscape:cx="60.247738"
     inkscape:cy="19.548976"
     inkscape:window-x="54"
     inkscape:window-y="-8"
     inkscape:window-maximized="1"
     inkscape:current-layer="svg2" />
  <defs
     id="defs4" />
  <metadata
     id="metadata7">
    <rdf:RDF>
      <cc:Work
         rdf:about="">
        <dc:format>image/svg+xml</dc:format>
        <dc:type
           rdf:resource="http://purl.org/dc/dcmitype/StillImage" />
        <dc:title />
      </cc:Work>
    </rdf:RDF>
  </metadata>
  <g
     id="g4569"
     transform="translate(154.40799,5.4358219)">
    <path
       sodipodi:nodetypes="cccccccccccccccccccccccccccc"
       inkscape:connector-curvature="0"
       id="path4551"
       d="m -112.81356,76.745763 -16.94915,-0.271187 -14.1017,-6.644068 -5.28813,-10.98305 2.84746,-15.050848 13.55932,-11.932203 6.50847,-9.355933 16.40678,-5.016949 8.27119,1.627119 7.457625,-4.474576 15.59322,1.220339 7.593221,3.254237 5.694915,0.135593 15.864407,5.966102 9.898305,13.016949 1.762712,5.423729 6.237288,9.762712 -0.677966,13.830508 -8.271187,10.576271 -6.101695,1.491526 -7.322034,7.728813 -4.847369,1.63881 1.457539,14.225593 -10.661912,0.15624 -10.219444,-12.359626 -12.61017,-7.050847 -11.118645,-0.813559 z"
       style="fill:#ffffff;fill-opacity:1;stroke:#000000;stroke-width:1px;stroke-linecap:butt;stroke-linejoin:miter;stroke-opacity:1" />
    <path
       sodipodi:nodetypes="cccsc"
       inkscape:connector-curvature="0"
       id="path4504"
       d="m -67.882251,103.07149 h 12.08074 c 0,0 -5.369218,-10.930193 -2.876367,-14.381833 2.876367,-1.342305 6.711522,-1.773759 10.35492,-6.519764 5.121854,-6.671888 2.492851,-13.423044 2.492851,-13.423044"
       style="fill:none;stroke:#060606;stroke-width:5;stroke-linecap:round;stroke-linejoin:round;stroke-miterlimit:4;stroke-dasharray:none;stroke-opacity:1" />
    <path
       sodipodi:nodetypes="csc"
       inkscape:connector-curvature="0"
       id="path4506"
       d="m -46.508475,79.322034 c 0,0 16.757283,-2.86436 15.050848,-23.186441 -1.491526,-17.762712 -18.169492,-17.898305 -26.033898,-13.559322"
       style="fill:none;stroke:#060606;stroke-width:5;stroke-linecap:round;stroke-linejoin:round;stroke-miterlimit:4;stroke-dasharray:none;stroke-opacity:1" />
    <path
       inkscape:connector-curvature="0"
       id="path4508"
       d="M -38.779661,42.576271 C -40.813559,28.338983 -55.457627,17.898305 -70.915254,19.118644"
       style="fill:none;stroke:#060606;stroke-width:5;stroke-linecap:round;stroke-linejoin:round;stroke-miterlimit:4;stroke-dasharray:none;stroke-opacity:1" />
    <path
       sodipodi:nodetypes="cc"
       inkscape:connector-curvature="0"
       id="path4510"
       d="M -66.440678,25.898305 C -71.457627,11.661017 -95.728814,11.38983 -101.55932,19.118644"
       style="fill:none;stroke:#060606;stroke-width:5;stroke-linecap:round;stroke-linejoin:round;stroke-miterlimit:4;stroke-dasharray:none;stroke-opacity:1" />
    <path
       sodipodi:nodetypes="cc"
       inkscape:connector-curvature="0"
       id="path4512"
       d="M -95.59322,22.508474 C -112.1356,9.3559324 -141.9661,24.40678 -130.44068,43.38983"
       style="fill:none;stroke:#060606;stroke-width:5;stroke-linecap:round;stroke-linejoin:round;stroke-miterlimit:4;stroke-dasharray:none;stroke-opacity:1" />
    <path
       sodipodi:nodetypes="cc"
       inkscape:connector-curvature="0"
       id="path4514"
       d="m -132.74576,31.864407 c -26.44068,13.423729 -22.77967,49.762712 19.9322,44.881356"
       style="fill:none;stroke:#060606;stroke-width:5;stroke-linecap:round;stroke-linejoin:round;stroke-miterlimit:4;stroke-dasharray:none;stroke-opacity:1" />
    <path
       sodipodi:nodetypes="cc"
       inkscape:connector-curvature="0"
       id="path4516"
       d="m -67.882251,103.07149 c 0,0 -8.049953,-14.664711 -24.321139,-19.139287"
       style="fill:none;stroke:#060606;stroke-width:5;stroke-linecap:round;stroke-linejoin:round;stroke-miterlimit:4;stroke-dasharray:none;stroke-opacity:1" />
    <path
       sodipodi:nodetypes="csssc"
       inkscape:connector-curvature="0"
       id="path4518"
       d="m -52.338983,61.966102 c -5.423729,-7.050848 -16.406779,-8.135593 -23.728814,8.949152 -6.880098,16.053561 -18.576271,14.101695 -28.338983,10.440678 -9.76271,-3.661017 -20.62937,-17.403048 -9.22034,-30.644068 8.41025,-9.760719 24.677967,-4.881356 20.338984,2.169492"
       style="fill:none;stroke:#060606;stroke-width:5;stroke-linecap:round;stroke-linejoin:round;stroke-miterlimit:4;stroke-dasharray:none;stroke-opacity:1" />
    <path
       sodipodi:nodetypes="cc"
       inkscape:connector-curvature="0"
       id="path4520"
       d="m -58.983051,70.508475 c -0.40678,14.915254 -21.423729,11.796609 -15.457627,-3.254238"
       style="fill:none;stroke:#060606;stroke-width:5;stroke-linecap:round;stroke-linejoin:round;stroke-miterlimit:4;stroke-dasharray:none;stroke-opacity:1" />
    <path
       inkscape:connector-curvature="0"
       id="path4522"
       d="M -104.27119,61.966102 C -98.847458,73.084746 -86.915254,72 -83.932203,59.525424"
       style="fill:none;stroke:#060606;stroke-width:5;stroke-linecap:round;stroke-linejoin:round;stroke-miterlimit:4;stroke-dasharray:none;stroke-opacity:1" />
    <path
       inkscape:connector-curvature="0"
       id="path4524"
       d="m -140.61017,53.966102 c 7.18644,7.728813 15.86441,3.38983 16.94915,-4.881356"
       style="fill:none;stroke:#060606;stroke-width:5;stroke-linecap:round;stroke-linejoin:round;stroke-miterlimit:4;stroke-dasharray:none;stroke-opacity:1" />
    <path
       inkscape:connector-curvature="0"
       id="path4526"
       d="m -117.55932,39.457627 c 0.81356,-9.762712 11.38983,-13.016949 18.305083,-5.559322"
       style="fill:none;stroke:#060606;stroke-width:5;stroke-linecap:round;stroke-linejoin:round;stroke-miterlimit:4;stroke-dasharray:none;stroke-opacity:1" />
    <path
       sodipodi:nodetypes="cc"
       inkscape:connector-curvature="0"
       id="path4528"
       d="m -90.983051,39.457627 c -0.949152,4.61017 -4.610169,5.423728 -11.525419,5.830508"
       style="fill:none;stroke:#060606;stroke-width:5;stroke-linecap:round;stroke-linejoin:round;stroke-miterlimit:4;stroke-dasharray:none;stroke-opacity:1" />
    <path
       inkscape:connector-curvature="0"
       id="path4530"
       d="m -84.745763,26.033898 c -0.406779,12.61017 14.508475,19.79661 21.830509,10.305085"
       style="fill:none;stroke:#060606;stroke-width:5;stroke-linecap:round;stroke-linejoin:round;stroke-miterlimit:4;stroke-dasharray:none;stroke-opacity:1" />
    <path
       inkscape:connector-curvature="0"
       id="path4532"
       d="m -75.389831,39.864407 c 5.423729,3.932203 3.254238,9.220339 -0.135593,10.847457"
       style="fill:none;stroke:#060606;stroke-width:5;stroke-linecap:round;stroke-linejoin:round;stroke-miterlimit:4;stroke-dasharray:none;stroke-opacity:1" />
  </g>
</svg>
