<?xml version="1.0" encoding="UTF-8" standalone="no"?>
<!-- Created with Inkscape (http://www.inkscape.org/) -->

<svg
   xmlns:dc="http://purl.org/dc/elements/1.1/"
   xmlns:cc="http://creativecommons.org/ns#"
   xmlns:rdf="http://www.w3.org/1999/02/22-rdf-syntax-ns#"
   xmlns:svg="http://www.w3.org/2000/svg"
   xmlns="http://www.w3.org/2000/svg"
   xmlns:sodipodi="http://sodipodi.sourceforge.net/DTD/sodipodi-0.dtd"
   xmlns:inkscape="http://www.inkscape.org/namespaces/inkscape"
   width="1920"
   height="1080"
   viewBox="0 0 1920 1080"
   id="svg2"
   version="1.1"
   inkscape:version="0.92.1 r15371"
   sodipodi:docname="cs_after_skilos_3.svg"
   inkscape:export-filename="C:\Users\Aleksandr_Bakanov\Documents\GITREPOS\cell\drawings\cs_after_skilos_3.png"
   inkscape:export-xdpi="96"
   inkscape:export-ydpi="96">
  <defs
     id="defs4" />
  <sodipodi:namedview
     id="base"
     pagecolor="#ffffff"
     bordercolor="#666666"
     borderopacity="1.0"
     inkscape:pageopacity="0.0"
     inkscape:pageshadow="2"
     inkscape:zoom="0.64999999"
     inkscape:cx="687.51039"
     inkscape:cy="556.11939"
     inkscape:document-units="px"
     inkscape:current-layer="layer1"
     showgrid="false"
     units="px"
     inkscape:window-width="1858"
     inkscape:window-height="1177"
     inkscape:window-x="54"
     inkscape:window-y="-8"
     inkscape:window-maximized="1" />
  <metadata
     id="metadata7">
    <rdf:RDF>
      <cc:Work
         rdf:about="">
        <dc:format>image/svg+xml</dc:format>
        <dc:type
           rdf:resource="http://purl.org/dc/dcmitype/StillImage" />
        <dc:title />
      </cc:Work>
    </rdf:RDF>
  </metadata>
  <g
     inkscape:label="Layer 1"
     inkscape:groupmode="layer"
     id="layer1"
     transform="translate(0,27.63784)">
    <rect
       style="fill:#fef5c8;fill-opacity:1;stroke:#ffffff;stroke-width:0;stroke-linecap:round;stroke-linejoin:round;stroke-miterlimit:4;stroke-dasharray:none;stroke-opacity:0"
       id="rect4489"
       width="1920"
       height="1080"
       x="-2.6041668e-016"
       y="-27.637846" />
    <g
       id="g5298"
       transform="matrix(1.392762,0,0,1.392762,-381.09503,-431.26835)">
      <g
         transform="translate(-448.21465,257.97745)"
         id="g5338-4-2">
        <path
           id="path4506-2-5-7-4-6-17-7-4-6-4-4-7-42-7-7"
           d="m 1473.6539,-78.570389 -49.8017,28.664157 -49.8016,-28.664157 v -57.328301 l 49.8016,-28.66416 49.8017,28.66416 z"
           style="fill:none;fill-opacity:1;stroke:#000000;stroke-width:16;stroke-linecap:round;stroke-linejoin:round;stroke-miterlimit:4;stroke-dasharray:none;stroke-opacity:1"
           inkscape:connector-curvature="0" />
        <g
           transform="translate(-298.80975,-2.8516976e-6)"
           id="g5115-0-6-9">
          <path
             inkscape:connector-curvature="0"
             style="fill:none;fill-opacity:1;stroke:#000000;stroke-width:15.79595078;stroke-linecap:round;stroke-linejoin:round;stroke-miterlimit:4;stroke-dasharray:none;stroke-opacity:1"
             d="m 1692.4188,258.85563 -49.8017,28.66415 -49.8016,-28.66415 v -57.3283 l 49.8016,-28.66416 49.8017,28.66416 z"
             id="path4506-2-5-7-4-6-17-7-4-6-4-4-7-6-9-2-2" />
          <path
             inkscape:connector-curvature="0"
             style="fill:none;fill-opacity:1;stroke:#000000;stroke-width:15.79595078;stroke-linecap:round;stroke-linejoin:round;stroke-miterlimit:4;stroke-dasharray:none;stroke-opacity:1"
             d="m 1792.0221,258.85562 -49.8017,28.66415 -49.8016,-28.66415 v -57.32829 l 49.8016,-28.66417 49.8017,28.66417 z"
             id="path4506-2-5-7-4-6-17-7-4-6-4-4-7-6-9-2-4-8" />
          <path
             inkscape:connector-curvature="0"
             style="fill:none;fill-opacity:1;stroke:#000000;stroke-width:15.79595078;stroke-linecap:round;stroke-linejoin:round;stroke-miterlimit:4;stroke-dasharray:none;stroke-opacity:1"
             d="m 1792.0221,430.84059 -49.8017,28.66415 -49.8016,-28.66415 v -57.3283 l 49.8016,-28.66416 49.8017,28.66416 z"
             id="path4506-2-5-7-4-6-17-7-44-3-1-2-1-7-8" />
          <path
             inkscape:connector-curvature="0"
             style="fill:none;fill-opacity:1;stroke:#000000;stroke-width:15.79595078;stroke-linecap:round;stroke-linejoin:round;stroke-miterlimit:4;stroke-dasharray:none;stroke-opacity:1"
             d="m 1642.6173,344.84811 -49.8017,28.66415 -49.8016,-28.66415 v -57.3283 l 49.8016,-28.66416 49.8017,28.66416 z"
             id="path4506-2-5-7-4-6-17-7-44-3-1-2-1-7-9-6" />
          <path
             inkscape:connector-curvature="0"
             style="fill:none;fill-opacity:1;stroke:#000000;stroke-width:15.79595078;stroke-linecap:round;stroke-linejoin:round;stroke-miterlimit:4;stroke-dasharray:none;stroke-opacity:1"
             d="m 1841.8237,344.84812 -49.8017,28.66415 -49.8016,-28.66415 v -57.3283 l 49.8016,-28.66416 49.8017,28.66416 z"
             id="path4506-2-5-7-4-6-17-7-44-3-1-2-1-7-95-7" />
          <path
             inkscape:connector-curvature="0"
             style="fill:none;fill-opacity:1;stroke:#000000;stroke-width:15.79595078;stroke-linecap:round;stroke-linejoin:round;stroke-miterlimit:4;stroke-dasharray:none;stroke-opacity:1"
             d="m 1742.2205,344.84809 -49.8017,28.66415 -49.8016,-28.66415 v -57.3283 l 49.8016,-28.66416 49.8017,28.66416 z"
             id="path4506-2-5-7-4-6-17-7-4-6-4-4-7-6-9-2-6-9" />
          <path
             inkscape:connector-curvature="0"
             style="fill:none;fill-opacity:1;stroke:#000000;stroke-width:15.79595078;stroke-linecap:round;stroke-linejoin:round;stroke-miterlimit:4;stroke-dasharray:none;stroke-opacity:1"
             d="m 1692.419,430.84057 -49.8017,28.66415 -49.8016,-28.66415 v -57.32829 l 49.8016,-28.66417 49.8017,28.66417 z"
             id="path4506-2-5-7-4-6-17-7-4-6-4-4-7-6-9-2-6-4-2" />
          <path
             inkscape:connector-curvature="0"
             style="fill:#5aba17;fill-opacity:1;stroke:#000000;stroke-width:1.8152523;stroke-linecap:round;stroke-linejoin:round;stroke-miterlimit:4;stroke-dasharray:none;stroke-opacity:1"
             d="m 1692.4188,258.85563 -49.8017,28.66415 -49.8016,-28.66415 v -57.3283 l 49.8016,-28.66416 49.8017,28.66416 z"
             id="path4506-2-5-7-4-6-17-7-4-6-4-4-7-6-9-2-2-7" />
          <path
             inkscape:connector-curvature="0"
             style="fill:#d41313;fill-opacity:1;stroke:#000000;stroke-width:1.8152523;stroke-linecap:round;stroke-linejoin:round;stroke-miterlimit:4;stroke-dasharray:none;stroke-opacity:1"
             d="m 1792.0221,258.85562 -49.8017,28.66415 -49.8016,-28.66415 v -57.32829 l 49.8016,-28.66417 49.8017,28.66417 z"
             id="path4506-2-5-7-4-6-17-7-4-6-4-4-7-6-9-2-4-8-3" />
          <path
             inkscape:connector-curvature="0"
             style="fill:#5aba17;fill-opacity:1;stroke:#000000;stroke-width:1.8152523;stroke-linecap:round;stroke-linejoin:round;stroke-miterlimit:4;stroke-dasharray:none;stroke-opacity:1"
             d="m 1792.0221,430.84059 -49.8017,28.66415 -49.8016,-28.66415 v -57.3283 l 49.8016,-28.66416 49.8017,28.66416 z"
             id="path4506-2-5-7-4-6-17-7-44-3-1-2-1-7-8-7" />
          <path
             inkscape:connector-curvature="0"
             style="fill:#5aba17;fill-opacity:1;stroke:#000000;stroke-width:1.8152523;stroke-linecap:round;stroke-linejoin:round;stroke-miterlimit:4;stroke-dasharray:none;stroke-opacity:1"
             d="m 1642.6173,344.84811 -49.8017,28.66415 -49.8016,-28.66415 v -57.3283 l 49.8016,-28.66416 49.8017,28.66416 z"
             id="path4506-2-5-7-4-6-17-7-44-3-1-2-1-7-9-6-4" />
          <path
             inkscape:connector-curvature="0"
             style="fill:#5aba17;fill-opacity:1;stroke:#000000;stroke-width:1.8152523;stroke-linecap:round;stroke-linejoin:round;stroke-miterlimit:4;stroke-dasharray:none;stroke-opacity:1"
             d="m 1841.8237,344.84811 -49.8017,28.66416 -49.8016,-28.66416 v -57.32829 l 49.8016,-28.66416 49.8017,28.66416 z"
             id="path4506-2-5-7-4-6-17-7-44-3-1-2-1-7-95-7-1" />
          <path
             inkscape:connector-curvature="0"
             style="fill:#5aba17;fill-opacity:1;stroke:#000000;stroke-width:1.8152523;stroke-linecap:round;stroke-linejoin:round;stroke-miterlimit:4;stroke-dasharray:none;stroke-opacity:1"
             d="m 1742.2205,344.84809 -49.8017,28.66415 -49.8016,-28.66415 v -57.3283 l 49.8016,-28.66416 49.8017,28.66416 z"
             id="path4506-2-5-7-4-6-17-7-4-6-4-4-7-6-9-2-6-9-4" />
          <path
             inkscape:connector-curvature="0"
             style="fill:#5aba17;fill-opacity:1;stroke:#000000;stroke-width:1.8152523;stroke-linecap:round;stroke-linejoin:round;stroke-miterlimit:4;stroke-dasharray:none;stroke-opacity:1"
             d="m 1692.419,430.84057 -49.8017,28.66415 -49.8016,-28.66415 v -57.32829 l 49.8016,-28.66417 49.8017,28.66417 z"
             id="path4506-2-5-7-4-6-17-7-4-6-4-4-7-6-9-2-6-4-2-6" />
        </g>
        <g
           aria-label="2"
           style="font-style:normal;font-variant:normal;font-weight:normal;font-stretch:normal;font-size:18.66666603px;line-height:1.25;font-family:monospace;-inkscape-font-specification:monospace;text-align:center;letter-spacing:0px;word-spacing:0px;text-anchor:middle;fill:#117b19;fill-opacity:1;stroke:none"
           id="text4840-0-8-46-7"
           transform="translate(902.92687,-360.85832)">
          <path
             inkscape:connector-curvature="0"
             d="m 1186.7261,329.76721 h 14.0312 q 1.1563,-0.9375 2.1875,-0.9375 1.4688,0 2.3125,0.96875 0.875,0.96875 0.875,3.3125 v 3.0625 h -29.1875 v -6.78125 q 17.3125,-14.28125 20.9063,-18.375 1.8125,-2.09375 1.8125,-3.96875 0,-2.34375 -2.0625,-4.125 -2.0313,-1.8125 -5.4375,-1.8125 -3.4375,0 -5.7188,2 -1.1875,1.0625 -1.9062,3.15625 -0.4375,1.3125 -1.2188,1.875 -0.75,0.5625 -1.875,0.5625 -1.3125,0 -2.2812,-0.9375 -0.9375,-0.9375 -0.9375,-2.1875 0,-1.875 1.7187,-4.6875 1.75,-2.8125 5.0625,-4.5 3.3438,-1.6875 7.25,-1.6875 6.0625,0 9.9375,3.6875 3.875,3.65625 3.875,8.875 0,2.65625 -1.125,4.9375 -1.0937,2.25 -5.3125,6.25 -3.3125,3.15625 -12.9062,11.3125 z"
             style="font-style:normal;font-variant:normal;font-weight:bold;font-stretch:normal;font-size:64px;font-family:monospace;-inkscape-font-specification:'monospace Bold';fill:#117b19;fill-opacity:1"
             id="path5187-8-5" />
        </g>
        <g
           aria-label="1"
           style="font-style:normal;font-variant:normal;font-weight:normal;font-stretch:normal;font-size:18.66666603px;line-height:1.25;font-family:monospace;-inkscape-font-specification:monospace;text-align:center;letter-spacing:0px;word-spacing:0px;text-anchor:middle;fill:#817612;fill-opacity:1;stroke:none"
           id="text4840-0-7-2-1-2-6-7"
           transform="translate(699.01466,-358.44726)">
          <path
             inkscape:connector-curvature="0"
             d="m 1299.3726,293.93549 v 35.0625 h 6.4687 q 2.3125,0 3.2813,0.90625 1,0.875 1,2.3125 0,1.40625 -1,2.3125 -0.9688,0.875 -3.2813,0.875 h -19.3437 q -2.3125,0 -3.3125,-0.875 -0.9688,-0.90625 -0.9688,-2.34375 0,-1.40625 0.9688,-2.28125 1,-0.90625 3.3125,-0.90625 h 6.4687 v -26.71875 l -5.7187,1.5 q -1.375,0.375 -2.0625,0.375 -1.2188,0 -2.125,-0.96875 -0.875,-0.96875 -0.875,-2.375 0,-1.28125 0.6562,-2 0.6563,-0.75 2.75,-1.3125 z"
             style="font-style:normal;font-variant:normal;font-weight:bold;font-stretch:normal;font-size:64px;font-family:monospace;-inkscape-font-specification:'monospace Bold';fill:#817612;fill-opacity:1"
             id="path5175-3-1" />
        </g>
        <g
           aria-label="3"
           style="font-style:normal;font-variant:normal;font-weight:normal;font-stretch:normal;font-size:18.66666603px;line-height:1.25;font-family:monospace;-inkscape-font-specification:monospace;text-align:center;letter-spacing:0px;word-spacing:0px;text-anchor:middle;fill:#8e2311;fill-opacity:1;stroke:none"
           id="text4840-0-7-2-1-9-8-2-3-7-1"
           transform="translate(796.70018,-273.37751)">
          <path
             inkscape:connector-curvature="0"
             d="m 1253.0806,228.14459 q 2.8437,1.9375 4.25,4.5 1.4062,2.53125 1.4062,5.6875 0,3.40625 -1.875,6.3125 -1.8437,2.875 -5.375,4.375 -3.5312,1.46875 -9.25,1.46875 -7.4375,0 -11.1875,-2.3125 -2.0937,-1.3125 -2.0937,-3.125 0,-1.375 0.9062,-2.3125 0.9375,-0.96875 2.25,-0.96875 0.9063,0 1.875,0.625 1.375,0.9375 2.5938,1.25 1.875,0.4375 5.1562,0.4375 5.5938,0 8.0938,-1.4375 2.5,-1.46875 2.5,-4.125 0,-1.96875 -1.4688,-3.78125 -1.4375,-1.84375 -3.875,-2.84375 -1.4062,-0.5625 -4.75,-0.78125 -1.5937,-0.0937 -2.4687,-0.96875 -0.8438,-0.90625 -0.8438,-2.21875 0,-1.375 0.9375,-2.3125 0.9375,-0.9375 2.375,-0.9375 3.1875,0 3.4063,-0.0312 1.25,-0.125 2.5,-0.8125 1.25,-0.6875 2,-1.875 0.7812,-1.21875 0.7812,-2.5 0,-2.03125 -1.8125,-3.5 -1.7812,-1.5 -5.375,-1.5 -4.625,0 -7.0625,2.6875 -0.7187,0.78125 -1.1562,1 -0.6563,0.34375 -1.4688,0.34375 -1.3125,0 -2.25,-0.9375 -0.9375,-0.9375 -0.9375,-2.3125 0,-2.15625 2.875,-4.1875 4.1875,-2.96875 10.4688,-2.96875 5.9375,0 9.5312,3.375 3.5938,3.375 3.5938,8.125 0,2.46875 -1.0625,4.625 -1.0625,2.125 -3.1875,3.9375 z"
             style="font-style:normal;font-variant:normal;font-weight:bold;font-stretch:normal;font-size:64px;font-family:monospace;-inkscape-font-specification:'monospace Bold';fill:#8e2311;fill-opacity:1"
             id="path5163-7-4" />
        </g>
      </g>
    </g>
    <g
       id="g4569"
       transform="translate(1025.3829,310.49367)">
      <path
         sodipodi:nodetypes="cccccccccccccccccccccccccccc"
         inkscape:connector-curvature="0"
         id="path4551"
         d="m -112.81356,76.745763 -16.94915,-0.271187 -14.1017,-6.644068 -5.28813,-10.98305 2.84746,-15.050848 13.55932,-11.932203 6.50847,-9.355933 16.40678,-5.016949 8.27119,1.627119 7.457625,-4.474576 15.59322,1.220339 7.593221,3.254237 5.694915,0.135593 15.864407,5.966102 9.898305,13.016949 1.762712,5.423729 6.237288,9.762712 -0.677966,13.830508 -8.271187,10.576271 -6.101695,1.491526 -7.322034,7.728813 -4.847369,1.63881 1.457539,14.225593 -10.661912,0.15624 -10.219444,-12.359626 -12.61017,-7.050847 -11.118645,-0.813559 z"
         style="fill:#ffffff;fill-opacity:1;stroke:#000000;stroke-width:1px;stroke-linecap:butt;stroke-linejoin:miter;stroke-opacity:1" />
      <path
         sodipodi:nodetypes="cccsc"
         inkscape:connector-curvature="0"
         id="path4504"
         d="m -67.882251,103.07149 h 12.08074 c 0,0 -5.369218,-10.930193 -2.876367,-14.381833 2.876367,-1.342305 6.711522,-1.773759 10.35492,-6.519764 5.121854,-6.671888 2.492851,-13.423044 2.492851,-13.423044"
         style="fill:none;stroke:#060606;stroke-width:5;stroke-linecap:round;stroke-linejoin:round;stroke-miterlimit:4;stroke-dasharray:none;stroke-opacity:1" />
      <path
         sodipodi:nodetypes="csc"
         inkscape:connector-curvature="0"
         id="path4506"
         d="m -46.508475,79.322034 c 0,0 16.757283,-2.86436 15.050848,-23.186441 -1.491526,-17.762712 -18.169492,-17.898305 -26.033898,-13.559322"
         style="fill:none;stroke:#060606;stroke-width:5;stroke-linecap:round;stroke-linejoin:round;stroke-miterlimit:4;stroke-dasharray:none;stroke-opacity:1" />
      <path
         inkscape:connector-curvature="0"
         id="path4508"
         d="M -38.779661,42.576271 C -40.813559,28.338983 -55.457627,17.898305 -70.915254,19.118644"
         style="fill:none;stroke:#060606;stroke-width:5;stroke-linecap:round;stroke-linejoin:round;stroke-miterlimit:4;stroke-dasharray:none;stroke-opacity:1" />
      <path
         sodipodi:nodetypes="cc"
         inkscape:connector-curvature="0"
         id="path4510"
         d="M -66.440678,25.898305 C -71.457627,11.661017 -95.728814,11.38983 -101.55932,19.118644"
         style="fill:none;stroke:#060606;stroke-width:5;stroke-linecap:round;stroke-linejoin:round;stroke-miterlimit:4;stroke-dasharray:none;stroke-opacity:1" />
      <path
         sodipodi:nodetypes="cc"
         inkscape:connector-curvature="0"
         id="path4512"
         d="M -95.59322,22.508474 C -112.1356,9.3559324 -141.9661,24.40678 -130.44068,43.38983"
         style="fill:none;stroke:#060606;stroke-width:5;stroke-linecap:round;stroke-linejoin:round;stroke-miterlimit:4;stroke-dasharray:none;stroke-opacity:1" />
      <path
         sodipodi:nodetypes="cc"
         inkscape:connector-curvature="0"
         id="path4514"
         d="m -132.74576,31.864407 c -26.44068,13.423729 -22.77967,49.762712 19.9322,44.881356"
         style="fill:none;stroke:#060606;stroke-width:5;stroke-linecap:round;stroke-linejoin:round;stroke-miterlimit:4;stroke-dasharray:none;stroke-opacity:1" />
      <path
         sodipodi:nodetypes="cc"
         inkscape:connector-curvature="0"
         id="path4516"
         d="m -67.882251,103.07149 c 0,0 -8.049953,-14.664711 -24.321139,-19.139287"
         style="fill:none;stroke:#060606;stroke-width:5;stroke-linecap:round;stroke-linejoin:round;stroke-miterlimit:4;stroke-dasharray:none;stroke-opacity:1" />
      <path
         sodipodi:nodetypes="csssc"
         inkscape:connector-curvature="0"
         id="path4518"
         d="m -52.338983,61.966102 c -5.423729,-7.050848 -16.406779,-8.135593 -23.728814,8.949152 -6.880098,16.053561 -18.576271,14.101695 -28.338983,10.440678 -9.76271,-3.661017 -20.62937,-17.403048 -9.22034,-30.644068 8.41025,-9.760719 24.677967,-4.881356 20.338984,2.169492"
         style="fill:none;stroke:#060606;stroke-width:5;stroke-linecap:round;stroke-linejoin:round;stroke-miterlimit:4;stroke-dasharray:none;stroke-opacity:1" />
      <path
         sodipodi:nodetypes="cc"
         inkscape:connector-curvature="0"
         id="path4520"
         d="m -58.983051,70.508475 c -0.40678,14.915254 -21.423729,11.796609 -15.457627,-3.254238"
         style="fill:none;stroke:#060606;stroke-width:5;stroke-linecap:round;stroke-linejoin:round;stroke-miterlimit:4;stroke-dasharray:none;stroke-opacity:1" />
      <path
         inkscape:connector-curvature="0"
         id="path4522"
         d="M -104.27119,61.966102 C -98.847458,73.084746 -86.915254,72 -83.932203,59.525424"
         style="fill:none;stroke:#060606;stroke-width:5;stroke-linecap:round;stroke-linejoin:round;stroke-miterlimit:4;stroke-dasharray:none;stroke-opacity:1" />
      <path
         inkscape:connector-curvature="0"
         id="path4524"
         d="m -140.61017,53.966102 c 7.18644,7.728813 15.86441,3.38983 16.94915,-4.881356"
         style="fill:none;stroke:#060606;stroke-width:5;stroke-linecap:round;stroke-linejoin:round;stroke-miterlimit:4;stroke-dasharray:none;stroke-opacity:1" />
      <path
         inkscape:connector-curvature="0"
         id="path4526"
         d="m -117.55932,39.457627 c 0.81356,-9.762712 11.38983,-13.016949 18.305083,-5.559322"
         style="fill:none;stroke:#060606;stroke-width:5;stroke-linecap:round;stroke-linejoin:round;stroke-miterlimit:4;stroke-dasharray:none;stroke-opacity:1" />
      <path
         sodipodi:nodetypes="cc"
         inkscape:connector-curvature="0"
         id="path4528"
         d="m -90.983051,39.457627 c -0.949152,4.61017 -4.610169,5.423728 -11.525419,5.830508"
         style="fill:none;stroke:#060606;stroke-width:5;stroke-linecap:round;stroke-linejoin:round;stroke-miterlimit:4;stroke-dasharray:none;stroke-opacity:1" />
      <path
         inkscape:connector-curvature="0"
         id="path4530"
         d="m -84.745763,26.033898 c -0.406779,12.61017 14.508475,19.79661 21.830509,10.305085"
         style="fill:none;stroke:#060606;stroke-width:5;stroke-linecap:round;stroke-linejoin:round;stroke-miterlimit:4;stroke-dasharray:none;stroke-opacity:1" />
      <path
         inkscape:connector-curvature="0"
         id="path4532"
         d="m -75.389831,39.864407 c 5.423729,3.932203 3.254238,9.220339 -0.135593,10.847457"
         style="fill:none;stroke:#060606;stroke-width:5;stroke-linecap:round;stroke-linejoin:round;stroke-miterlimit:4;stroke-dasharray:none;stroke-opacity:1" />
    </g>
  </g>
</svg>
