<?xml version="1.0" encoding="UTF-8" standalone="no"?>
<!-- Created with Inkscape (http://www.inkscape.org/) -->

<svg
   xmlns:dc="http://purl.org/dc/elements/1.1/"
   xmlns:cc="http://creativecommons.org/ns#"
   xmlns:rdf="http://www.w3.org/1999/02/22-rdf-syntax-ns#"
   xmlns:svg="http://www.w3.org/2000/svg"
   xmlns="http://www.w3.org/2000/svg"
   xmlns:sodipodi="http://sodipodi.sourceforge.net/DTD/sodipodi-0.dtd"
   xmlns:inkscape="http://www.inkscape.org/namespaces/inkscape"
   width="1920"
   height="1080"
   viewBox="0 0 1920 1080"
   id="svg2"
   version="1.1"
   inkscape:version="0.92.1 r15371"
   sodipodi:docname="cs_after_skilos_3.svg">
  <defs
     id="defs4" />
  <sodipodi:namedview
     id="base"
     pagecolor="#ffffff"
     bordercolor="#666666"
     borderopacity="1.0"
     inkscape:pageopacity="0.0"
     inkscape:pageshadow="2"
     inkscape:zoom="0.64999999"
     inkscape:cx="670.58731"
     inkscape:cy="511.504"
     inkscape:document-units="px"
     inkscape:current-layer="layer1"
     showgrid="false"
     units="px"
     inkscape:window-width="1858"
     inkscape:window-height="1177"
     inkscape:window-x="54"
     inkscape:window-y="-8"
     inkscape:window-maximized="1" />
  <metadata
     id="metadata7">
    <rdf:RDF>
      <cc:Work
         rdf:about="">
        <dc:format>image/svg+xml</dc:format>
        <dc:type
           rdf:resource="http://purl.org/dc/dcmitype/StillImage" />
        <dc:title />
      </cc:Work>
    </rdf:RDF>
  </metadata>
  <g
     inkscape:label="Layer 1"
     inkscape:groupmode="layer"
     id="layer1"
     transform="translate(0,27.63784)">
    <rect
       style="fill:#fef5c8;fill-opacity:1;stroke:#ffffff;stroke-width:0;stroke-linecap:round;stroke-linejoin:round;stroke-miterlimit:4;stroke-dasharray:none;stroke-opacity:0"
       id="rect4489"
       width="1920"
       height="1080"
       x="-2.6041668e-016"
       y="-27.637846" />
    <g
       id="g5298"
       transform="matrix(1.392762,0,0,1.392762,-381.09503,-431.26835)">
      <g
         transform="translate(-448.21465,257.97745)"
         id="g5338-4-2">
        <path
           id="path4506-2-5-7-4-6-17-7-4-6-4-4-7-42-7-7"
           d="m 1473.6539,-78.570389 -49.8017,28.664157 -49.8016,-28.664157 v -57.328301 l 49.8016,-28.66416 49.8017,28.66416 z"
           style="fill:none;fill-opacity:1;stroke:#000000;stroke-width:16;stroke-linecap:round;stroke-linejoin:round;stroke-miterlimit:4;stroke-dasharray:none;stroke-opacity:1"
           inkscape:connector-curvature="0" />
        <g
           transform="translate(-298.80975,-2.8516976e-6)"
           id="g5115-0-6-9">
          <path
             inkscape:connector-curvature="0"
             style="fill:none;fill-opacity:1;stroke:#000000;stroke-width:15.79595078;stroke-linecap:round;stroke-linejoin:round;stroke-miterlimit:4;stroke-dasharray:none;stroke-opacity:1"
             d="m 1692.4188,258.85563 -49.8017,28.66415 -49.8016,-28.66415 v -57.3283 l 49.8016,-28.66416 49.8017,28.66416 z"
             id="path4506-2-5-7-4-6-17-7-4-6-4-4-7-6-9-2-2" />
          <path
             inkscape:connector-curvature="0"
             style="fill:none;fill-opacity:1;stroke:#000000;stroke-width:15.79595078;stroke-linecap:round;stroke-linejoin:round;stroke-miterlimit:4;stroke-dasharray:none;stroke-opacity:1"
             d="m 1792.0221,258.85562 -49.8017,28.66415 -49.8016,-28.66415 v -57.32829 l 49.8016,-28.66417 49.8017,28.66417 z"
             id="path4506-2-5-7-4-6-17-7-4-6-4-4-7-6-9-2-4-8" />
          <path
             inkscape:connector-curvature="0"
             style="fill:none;fill-opacity:1;stroke:#000000;stroke-width:15.79595078;stroke-linecap:round;stroke-linejoin:round;stroke-miterlimit:4;stroke-dasharray:none;stroke-opacity:1"
             d="m 1792.0221,430.84059 -49.8017,28.66415 -49.8016,-28.66415 v -57.3283 l 49.8016,-28.66416 49.8017,28.66416 z"
             id="path4506-2-5-7-4-6-17-7-44-3-1-2-1-7-8" />
          <path
             inkscape:connector-curvature="0"
             style="fill:none;fill-opacity:1;stroke:#000000;stroke-width:15.79595078;stroke-linecap:round;stroke-linejoin:round;stroke-miterlimit:4;stroke-dasharray:none;stroke-opacity:1"
             d="m 1642.6173,344.84811 -49.8017,28.66415 -49.8016,-28.66415 v -57.3283 l 49.8016,-28.66416 49.8017,28.66416 z"
             id="path4506-2-5-7-4-6-17-7-44-3-1-2-1-7-9-6" />
          <path
             inkscape:connector-curvature="0"
             style="fill:none;fill-opacity:1;stroke:#000000;stroke-width:15.79595078;stroke-linecap:round;stroke-linejoin:round;stroke-miterlimit:4;stroke-dasharray:none;stroke-opacity:1"
             d="m 1841.8237,344.84812 -49.8017,28.66415 -49.8016,-28.66415 v -57.3283 l 49.8016,-28.66416 49.8017,28.66416 z"
             id="path4506-2-5-7-4-6-17-7-44-3-1-2-1-7-95-7" />
          <path
             inkscape:connector-curvature="0"
             style="fill:none;fill-opacity:1;stroke:#000000;stroke-width:15.79595078;stroke-linecap:round;stroke-linejoin:round;stroke-miterlimit:4;stroke-dasharray:none;stroke-opacity:1"
             d="m 1742.2205,344.84809 -49.8017,28.66415 -49.8016,-28.66415 v -57.3283 l 49.8016,-28.66416 49.8017,28.66416 z"
             id="path4506-2-5-7-4-6-17-7-4-6-4-4-7-6-9-2-6-9" />
          <path
             inkscape:connector-curvature="0"
             style="fill:none;fill-opacity:1;stroke:#000000;stroke-width:15.79595078;stroke-linecap:round;stroke-linejoin:round;stroke-miterlimit:4;stroke-dasharray:none;stroke-opacity:1"
             d="m 1692.419,430.84057 -49.8017,28.66415 -49.8016,-28.66415 v -57.32829 l 49.8016,-28.66417 49.8017,28.66417 z"
             id="path4506-2-5-7-4-6-17-7-4-6-4-4-7-6-9-2-6-4-2" />
          <path
             inkscape:connector-curvature="0"
             style="fill:#5aba17;fill-opacity:1;stroke:#000000;stroke-width:1.8152523;stroke-linecap:round;stroke-linejoin:round;stroke-miterlimit:4;stroke-dasharray:none;stroke-opacity:1"
             d="m 1692.4188,258.85563 -49.8017,28.66415 -49.8016,-28.66415 v -57.3283 l 49.8016,-28.66416 49.8017,28.66416 z"
             id="path4506-2-5-7-4-6-17-7-4-6-4-4-7-6-9-2-2-7" />
          <path
             inkscape:connector-curvature="0"
             style="fill:#d41313;fill-opacity:1;stroke:#000000;stroke-width:1.8152523;stroke-linecap:round;stroke-linejoin:round;stroke-miterlimit:4;stroke-dasharray:none;stroke-opacity:1"
             d="m 1792.0221,258.85562 -49.8017,28.66415 -49.8016,-28.66415 v -57.32829 l 49.8016,-28.66417 49.8017,28.66417 z"
             id="path4506-2-5-7-4-6-17-7-4-6-4-4-7-6-9-2-4-8-3" />
          <path
             inkscape:connector-curvature="0"
             style="fill:#5aba17;fill-opacity:1;stroke:#000000;stroke-width:1.8152523;stroke-linecap:round;stroke-linejoin:round;stroke-miterlimit:4;stroke-dasharray:none;stroke-opacity:1"
             d="m 1792.0221,430.84059 -49.8017,28.66415 -49.8016,-28.66415 v -57.3283 l 49.8016,-28.66416 49.8017,28.66416 z"
             id="path4506-2-5-7-4-6-17-7-44-3-1-2-1-7-8-7" />
          <path
             inkscape:connector-curvature="0"
             style="fill:#5aba17;fill-opacity:1;stroke:#000000;stroke-width:1.8152523;stroke-linecap:round;stroke-linejoin:round;stroke-miterlimit:4;stroke-dasharray:none;stroke-opacity:1"
             d="m 1642.6173,344.84811 -49.8017,28.66415 -49.8016,-28.66415 v -57.3283 l 49.8016,-28.66416 49.8017,28.66416 z"
             id="path4506-2-5-7-4-6-17-7-44-3-1-2-1-7-9-6-4" />
          <path
             inkscape:connector-curvature="0"
             style="fill:#5aba17;fill-opacity:1;stroke:#000000;stroke-width:1.8152523;stroke-linecap:round;stroke-linejoin:round;stroke-miterlimit:4;stroke-dasharray:none;stroke-opacity:1"
             d="m 1841.8237,344.84811 -49.8017,28.66416 -49.8016,-28.66416 v -57.32829 l 49.8016,-28.66416 49.8017,28.66416 z"
             id="path4506-2-5-7-4-6-17-7-44-3-1-2-1-7-95-7-1" />
          <path
             inkscape:connector-curvature="0"
             style="fill:#5aba17;fill-opacity:1;stroke:#000000;stroke-width:1.8152523;stroke-linecap:round;stroke-linejoin:round;stroke-miterlimit:4;stroke-dasharray:none;stroke-opacity:1"
             d="m 1742.2205,344.84809 -49.8017,28.66415 -49.8016,-28.66415 v -57.3283 l 49.8016,-28.66416 49.8017,28.66416 z"
             id="path4506-2-5-7-4-6-17-7-4-6-4-4-7-6-9-2-6-9-4" />
          <path
             inkscape:connector-curvature="0"
             style="fill:#5aba17;fill-opacity:1;stroke:#000000;stroke-width:1.8152523;stroke-linecap:round;stroke-linejoin:round;stroke-miterlimit:4;stroke-dasharray:none;stroke-opacity:1"
             d="m 1692.419,430.84057 -49.8017,28.66415 -49.8016,-28.66415 v -57.32829 l 49.8016,-28.66417 49.8017,28.66417 z"
             id="path4506-2-5-7-4-6-17-7-4-6-4-4-7-6-9-2-6-4-2-6" />
        </g>
        <g
           aria-label="2"
           style="font-style:normal;font-variant:normal;font-weight:normal;font-stretch:normal;font-size:18.66666603px;line-height:1.25;font-family:monospace;-inkscape-font-specification:monospace;text-align:center;letter-spacing:0px;word-spacing:0px;text-anchor:middle;fill:#117b19;fill-opacity:1;stroke:none"
           id="text4840-0-8-46-7"
           transform="translate(902.92687,-360.85832)">
          <path
             inkscape:connector-curvature="0"
             d="m 1186.7261,329.76721 h 14.0312 q 1.1563,-0.9375 2.1875,-0.9375 1.4688,0 2.3125,0.96875 0.875,0.96875 0.875,3.3125 v 3.0625 h -29.1875 v -6.78125 q 17.3125,-14.28125 20.9063,-18.375 1.8125,-2.09375 1.8125,-3.96875 0,-2.34375 -2.0625,-4.125 -2.0313,-1.8125 -5.4375,-1.8125 -3.4375,0 -5.7188,2 -1.1875,1.0625 -1.9062,3.15625 -0.4375,1.3125 -1.2188,1.875 -0.75,0.5625 -1.875,0.5625 -1.3125,0 -2.2812,-0.9375 -0.9375,-0.9375 -0.9375,-2.1875 0,-1.875 1.7187,-4.6875 1.75,-2.8125 5.0625,-4.5 3.3438,-1.6875 7.25,-1.6875 6.0625,0 9.9375,3.6875 3.875,3.65625 3.875,8.875 0,2.65625 -1.125,4.9375 -1.0937,2.25 -5.3125,6.25 -3.3125,3.15625 -12.9062,11.3125 z"
             style="font-style:normal;font-variant:normal;font-weight:bold;font-stretch:normal;font-size:64px;font-family:monospace;-inkscape-font-specification:'monospace Bold';fill:#117b19;fill-opacity:1"
             id="path5187-8-5" />
        </g>
        <g
           aria-label="1"
           style="font-style:normal;font-variant:normal;font-weight:normal;font-stretch:normal;font-size:18.66666603px;line-height:1.25;font-family:monospace;-inkscape-font-specification:monospace;text-align:center;letter-spacing:0px;word-spacing:0px;text-anchor:middle;fill:#817612;fill-opacity:1;stroke:none"
           id="text4840-0-7-2-1-2-6-7"
           transform="translate(699.01466,-358.44726)">
          <path
             inkscape:connector-curvature="0"
             d="m 1299.3726,293.93549 v 35.0625 h 6.4687 q 2.3125,0 3.2813,0.90625 1,0.875 1,2.3125 0,1.40625 -1,2.3125 -0.9688,0.875 -3.2813,0.875 h -19.3437 q -2.3125,0 -3.3125,-0.875 -0.9688,-0.90625 -0.9688,-2.34375 0,-1.40625 0.9688,-2.28125 1,-0.90625 3.3125,-0.90625 h 6.4687 v -26.71875 l -5.7187,1.5 q -1.375,0.375 -2.0625,0.375 -1.2188,0 -2.125,-0.96875 -0.875,-0.96875 -0.875,-2.375 0,-1.28125 0.6562,-2 0.6563,-0.75 2.75,-1.3125 z"
             style="font-style:normal;font-variant:normal;font-weight:bold;font-stretch:normal;font-size:64px;font-family:monospace;-inkscape-font-specification:'monospace Bold';fill:#817612;fill-opacity:1"
             id="path5175-3-1" />
        </g>
        <g
           aria-label="3"
           style="font-style:normal;font-variant:normal;font-weight:normal;font-stretch:normal;font-size:18.66666603px;line-height:1.25;font-family:monospace;-inkscape-font-specification:monospace;text-align:center;letter-spacing:0px;word-spacing:0px;text-anchor:middle;fill:#8e2311;fill-opacity:1;stroke:none"
           id="text4840-0-7-2-1-9-8-2-3-7-1"
           transform="translate(796.70018,-273.37751)">
          <path
             inkscape:connector-curvature="0"
             d="m 1253.0806,228.14459 q 2.8437,1.9375 4.25,4.5 1.4062,2.53125 1.4062,5.6875 0,3.40625 -1.875,6.3125 -1.8437,2.875 -5.375,4.375 -3.5312,1.46875 -9.25,1.46875 -7.4375,0 -11.1875,-2.3125 -2.0937,-1.3125 -2.0937,-3.125 0,-1.375 0.9062,-2.3125 0.9375,-0.96875 2.25,-0.96875 0.9063,0 1.875,0.625 1.375,0.9375 2.5938,1.25 1.875,0.4375 5.1562,0.4375 5.5938,0 8.0938,-1.4375 2.5,-1.46875 2.5,-4.125 0,-1.96875 -1.4688,-3.78125 -1.4375,-1.84375 -3.875,-2.84375 -1.4062,-0.5625 -4.75,-0.78125 -1.5937,-0.0937 -2.4687,-0.96875 -0.8438,-0.90625 -0.8438,-2.21875 0,-1.375 0.9375,-2.3125 0.9375,-0.9375 2.375,-0.9375 3.1875,0 3.4063,-0.0312 1.25,-0.125 2.5,-0.8125 1.25,-0.6875 2,-1.875 0.7812,-1.21875 0.7812,-2.5 0,-2.03125 -1.8125,-3.5 -1.7812,-1.5 -5.375,-1.5 -4.625,0 -7.0625,2.6875 -0.7187,0.78125 -1.1562,1 -0.6563,0.34375 -1.4688,0.34375 -1.3125,0 -2.25,-0.9375 -0.9375,-0.9375 -0.9375,-2.3125 0,-2.15625 2.875,-4.1875 4.1875,-2.96875 10.4688,-2.96875 5.9375,0 9.5312,3.375 3.5938,3.375 3.5938,8.125 0,2.46875 -1.0625,4.625 -1.0625,2.125 -3.1875,3.9375 z"
             style="font-style:normal;font-variant:normal;font-weight:bold;font-stretch:normal;font-size:64px;font-family:monospace;-inkscape-font-specification:'monospace Bold';fill:#8e2311;fill-opacity:1"
             id="path5163-7-4" />
        </g>
      </g>
    </g>
    <path
       inkscape:connector-curvature="0"
       d="m 945.00011,358.1314 h -21.38474 v 21.38458 h 21.38474 z m -7.12829,14.25641 h -7.12816 v -7.12824 h 7.12816 z m 28.5129,-7.12824 v -7.12817 h -7.12816 v -7.12822 c 0,-3.92053 -3.20767,-7.12823 -7.12829,-7.12823 h -7.12816 v -7.12818 h -7.12829 v 7.12818 h -7.12816 v -7.12818 h -7.12829 v 7.12818 h -7.12816 c -3.92062,0 -7.12829,3.2077 -7.12829,7.12823 v 7.12822 h -7.12816 v 7.12817 h 7.12816 v 7.12824 h -7.12816 v 7.12817 h 7.12816 v 7.12823 c 0,3.92048 3.20767,7.12818 7.12829,7.12818 h 7.12816 v 7.12823 h 7.12829 v -7.12823 h 7.12816 v 7.12823 h 7.12829 v -7.12823 h 7.12816 c 3.92062,0 7.12829,-3.2077 7.12829,-7.12818 v -7.12823 h 7.12816 v -7.12817 h -7.12816 v -7.12824 z m -14.25645,21.38464 h -35.64106 v -35.64103 h 35.64106 z"
       id="path4"
       style="stroke-width:3.56410265" />
  </g>
</svg>
