<?xml version="1.0" encoding="UTF-8" standalone="no"?>
<!-- Created with Inkscape (http://www.inkscape.org/) -->

<svg
   xmlns:dc="http://purl.org/dc/elements/1.1/"
   xmlns:cc="http://creativecommons.org/ns#"
   xmlns:rdf="http://www.w3.org/1999/02/22-rdf-syntax-ns#"
   xmlns:svg="http://www.w3.org/2000/svg"
   xmlns="http://www.w3.org/2000/svg"
   xmlns:sodipodi="http://sodipodi.sourceforge.net/DTD/sodipodi-0.dtd"
   xmlns:inkscape="http://www.inkscape.org/namespaces/inkscape"
   width="1920"
   height="1080"
   viewBox="0 0 1920 1080"
   id="svg2"
   version="1.1"
   inkscape:version="0.92.1 r15371"
   sodipodi:docname="cs_introduction_38.svg"
   inkscape:export-filename="C:\Users\Aleksandr_Bakanov\Documents\GITREPOS\cell\drawings\cs_introduction_38.png"
   inkscape:export-xdpi="96"
   inkscape:export-ydpi="96">
  <defs
     id="defs4" />
  <sodipodi:namedview
     id="base"
     pagecolor="#ffffff"
     bordercolor="#666666"
     borderopacity="1.0"
     inkscape:pageopacity="0.0"
     inkscape:pageshadow="2"
     inkscape:zoom="0.64999999"
     inkscape:cx="889.84495"
     inkscape:cy="481.28267"
     inkscape:document-units="px"
     inkscape:current-layer="layer1"
     showgrid="false"
     units="px"
     inkscape:window-width="1858"
     inkscape:window-height="1177"
     inkscape:window-x="54"
     inkscape:window-y="-8"
     inkscape:window-maximized="1"
     showguides="false" />
  <metadata
     id="metadata7">
    <rdf:RDF>
      <cc:Work
         rdf:about="">
        <dc:format>image/svg+xml</dc:format>
        <dc:type
           rdf:resource="http://purl.org/dc/dcmitype/StillImage" />
        <dc:title />
      </cc:Work>
    </rdf:RDF>
  </metadata>
  <g
     inkscape:label="Layer 1"
     inkscape:groupmode="layer"
     id="layer1"
     transform="translate(0,27.63784)">
    <rect
       style="fill:#fef5c8;fill-opacity:1;stroke:#ffffff;stroke-width:0;stroke-linecap:round;stroke-linejoin:round;stroke-miterlimit:4;stroke-dasharray:none;stroke-opacity:0"
       id="rect4489"
       width="1920"
       height="1080"
       x="-2.6041668e-016"
       y="-27.637846" />
    <g
       id="g4906"
       transform="matrix(2.8261459,0,0,2.8261459,-22.861726,-462.63983)">
      <path
         transform="matrix(1.8184986,0,0,1.8128803,-1146.2745,-1096.6929)"
         d="m 848.96999,769.79631 -27.38613,15.81139 -27.38613,-15.81139 0,-31.62277 27.38613,-15.81139 27.38613,15.81139 z"
         inkscape:randomized="0"
         inkscape:rounded="0"
         inkscape:flatsided="true"
         sodipodi:arg2="1.0471976"
         sodipodi:arg1="0.52359878"
         sodipodi:r2="27.386127"
         sodipodi:r1="31.622778"
         sodipodi:cy="753.98492"
         sodipodi:cx="821.58386"
         sodipodi:sides="6"
         id="path4506-2-5-7-4-6-17-7-4-6-27-8-07-5-6-2"
         style="fill:none;fill-opacity:1;stroke:#000000;stroke-width:8.81208992;stroke-linecap:round;stroke-linejoin:round;stroke-miterlimit:4;stroke-dasharray:none;stroke-opacity:1"
         sodipodi:type="star" />
      <path
         transform="matrix(1.8184986,0,0,1.8128803,-1146.2745,-1096.6929)"
         d="m 848.96999,769.79631 -27.38613,15.81139 -27.38613,-15.81139 0,-31.62277 27.38613,-15.81139 27.38613,15.81139 z"
         inkscape:randomized="0"
         inkscape:rounded="0"
         inkscape:flatsided="true"
         sodipodi:arg2="1.0471976"
         sodipodi:arg1="0.52359878"
         sodipodi:r2="27.386127"
         sodipodi:r1="31.622778"
         sodipodi:cy="753.98492"
         sodipodi:cx="821.58386"
         sodipodi:sides="6"
         id="path4506-2-5-7-4-6-17-7-4-6-27-8-07-5-6-5-8"
         style="fill:#5aba17;fill-opacity:1;stroke:#000000;stroke-width:0.99976045;stroke-linecap:round;stroke-linejoin:round;stroke-miterlimit:4;stroke-dasharray:none;stroke-opacity:1"
         sodipodi:type="star" />
      <path
         sodipodi:nodetypes="cccc"
         inkscape:connector-curvature="0"
         id="path4506-2-5-7-4-6-17-7-4-6-27-8-07-5-6-8-0-3"
         d="m 397.57624,241.52735 v 57.32829 L 347.7746,327.5198 297.97296,298.85564"
         style="fill:none;fill-opacity:1;stroke:#000000;stroke-width:16;stroke-linecap:round;stroke-linejoin:round;stroke-miterlimit:4;stroke-dasharray:none;stroke-opacity:0.50196078" />
      <path
         sodipodi:nodetypes="cccc"
         inkscape:connector-curvature="0"
         id="path4506-2-5-7-4-6-17-7-4-6-27-8-07-5-6-8-9"
         d="m 297.97296,298.85564 v -57.32829 l 49.80164,-28.66416 49.80164,28.66416"
         style="fill:none;fill-opacity:1;stroke:#ffffff;stroke-width:16;stroke-linecap:round;stroke-linejoin:round;stroke-miterlimit:4;stroke-dasharray:none;stroke-opacity:0.50196078" />
    </g>
    <g
       aria-label="2"
       style="font-style:normal;font-variant:normal;font-weight:normal;font-stretch:normal;font-size:64px;line-height:1.25;font-family:monospace;-inkscape-font-specification:monospace;text-align:center;letter-spacing:0px;word-spacing:0px;text-anchor:middle;fill:#117b19;fill-opacity:1;stroke:none"
       id="text4768"
       transform="matrix(3.6711495,0,0,3.6711495,-2508.4036,-1175.0556)">
      <path
         inkscape:connector-curvature="0"
         d="m 939.41589,414.03281 h 14.03125 q 1.15625,-0.9375 2.1875,-0.9375 1.46875,0 2.3125,0.96875 0.875,0.96875 0.875,3.3125 v 3.0625 h -29.1875 v -6.78125 q 17.3125,-14.28125 20.90625,-18.375 1.8125,-2.09375 1.8125,-3.96875 0,-2.34375 -2.0625,-4.125 -2.03125,-1.8125 -5.4375,-1.8125 -3.4375,0 -5.71875,2 -1.1875,1.0625 -1.90625,3.15625 -0.4375,1.3125 -1.21875,1.875 -0.75,0.5625 -1.875,0.5625 -1.3125,0 -2.28125,-0.9375 -0.9375,-0.9375 -0.9375,-2.1875 0,-1.875 1.71875,-4.6875 1.75,-2.8125 5.0625,-4.5 3.34375,-1.6875 7.25,-1.6875 6.0625,0 9.9375,3.6875 3.875,3.65625 3.875,8.875 0,2.65625 -1.125,4.9375 -1.09375,2.25 -5.3125,6.25 -3.3125,3.15625 -12.90625,11.3125 z"
         style="font-style:normal;font-variant:normal;font-weight:bold;font-stretch:normal;font-family:monospace;-inkscape-font-specification:'monospace Bold';fill:#117b19;fill-opacity:1"
         id="path4770" />
    </g>
  </g>
</svg>
