<?xml version="1.0" encoding="UTF-8" standalone="no"?>
<!-- Created with Inkscape (http://www.inkscape.org/) -->

<svg
   xmlns:dc="http://purl.org/dc/elements/1.1/"
   xmlns:cc="http://creativecommons.org/ns#"
   xmlns:rdf="http://www.w3.org/1999/02/22-rdf-syntax-ns#"
   xmlns:svg="http://www.w3.org/2000/svg"
   xmlns="http://www.w3.org/2000/svg"
   xmlns:sodipodi="http://sodipodi.sourceforge.net/DTD/sodipodi-0.dtd"
   xmlns:inkscape="http://www.inkscape.org/namespaces/inkscape"
   width="1920"
   height="1080"
   viewBox="0 0 1920 1080"
   id="svg2"
   version="1.1"
   inkscape:version="0.92.1 r15371"
   sodipodi:docname="cs_introduction_50.svg">
  <defs
     id="defs4" />
  <sodipodi:namedview
     id="base"
     pagecolor="#ffffff"
     bordercolor="#666666"
     borderopacity="1.0"
     inkscape:pageopacity="0.0"
     inkscape:pageshadow="2"
     inkscape:zoom="0.4596194"
     inkscape:cx="1072.8463"
     inkscape:cy="423.53842"
     inkscape:document-units="px"
     inkscape:current-layer="layer1"
     showgrid="false"
     units="px"
     inkscape:window-width="1920"
     inkscape:window-height="1177"
     inkscape:window-x="1912"
     inkscape:window-y="-8"
     inkscape:window-maximized="1" />
  <metadata
     id="metadata7">
    <rdf:RDF>
      <cc:Work
         rdf:about="">
        <dc:format>image/svg+xml</dc:format>
        <dc:type
           rdf:resource="http://purl.org/dc/dcmitype/StillImage" />
        <dc:title />
      </cc:Work>
    </rdf:RDF>
  </metadata>
  <g
     inkscape:label="Layer 1"
     inkscape:groupmode="layer"
     id="layer1"
     transform="translate(0,27.63784)">
    <rect
       style="fill:#fef5c8;fill-opacity:1;stroke:#ffffff;stroke-width:0;stroke-linecap:round;stroke-linejoin:round;stroke-miterlimit:4;stroke-dasharray:none;stroke-opacity:0"
       id="rect4489"
       width="1920"
       height="1080"
       x="-2.6041668e-016"
       y="-27.637846" />
    <path
       style="fill:#ffffff;stroke:none;stroke-width:17.00087547;stroke-linecap:round;stroke-linejoin:round;stroke-miterlimit:4;stroke-dasharray:none;stroke-opacity:1"
       d="M 904.87642,379.56567 V 216.74958 c 0,0 1.30776,-25.50131 30.73237,-25.50131 29.42458,0 34.00175,24.84744 34.00175,24.84744 v 70.61902 c 0,0 12.36147,-1.10501 23.53967,3.2694 15.03809,5.88492 22.48789,15.69312 20.27029,15.69312 0,0 13.7315,-5.88492 30.0785,1.30776 16.347,7.19267 20.9241,16.34699 20.9241,16.34699 0,0 48.3871,2.61552 48.3871,66.04187 0,63.42634 -34.1855,79.07022 -38.5789,95.46646 -4.3934,16.39624 -2.6155,39.88668 -2.6155,39.88668 0,0 2.6155,23.53966 -16.347,23.53966 H 936.26266 c 0,0 -8.55913,-2.858 -16.34699,-16.34699 l -26.47815,-45.86149 c 0,0 -6.21585,-14.94933 -29.10164,-28.68082 -22.8858,-13.73147 -51.89815,-29.9634 -51.89815,-29.9634 0,0 -31.79847,-15.1543 -18.067,-42.61726 13.73147,-27.46295 39.88667,-20.27028 54.27203,-13.73148 14.38536,6.5388 37.27116,18.30864 37.27116,18.30864 0,0 18.9625,7.19268 18.9625,-9.8082 z"
       id="path4534-2"
       inkscape:connector-curvature="0"
       sodipodi:nodetypes="scsccscscsscscscscsscs" />
    <path
       style="color:#000000;font-style:normal;font-variant:normal;font-weight:normal;font-stretch:normal;font-size:medium;line-height:normal;font-family:sans-serif;font-variant-ligatures:normal;font-variant-position:normal;font-variant-caps:normal;font-variant-numeric:normal;font-variant-alternates:normal;font-feature-settings:normal;text-indent:0;text-align:start;text-decoration:none;text-decoration-line:none;text-decoration-style:solid;text-decoration-color:#000000;letter-spacing:normal;word-spacing:normal;text-transform:none;writing-mode:lr-tb;direction:ltr;text-orientation:mixed;dominant-baseline:auto;baseline-shift:baseline;text-anchor:start;white-space:normal;shape-padding:0;clip-rule:nonzero;display:inline;overflow:visible;visibility:visible;opacity:1;isolation:auto;mix-blend-mode:normal;color-interpolation:sRGB;color-interpolation-filters:linearRGB;solid-color:#000000;solid-opacity:1;vector-effect:none;fill:#000000;fill-opacity:1;fill-rule:nonzero;stroke:none;stroke-width:17.00087547;stroke-linecap:round;stroke-linejoin:round;stroke-miterlimit:4;stroke-dasharray:none;stroke-dashoffset:0;stroke-opacity:1;color-rendering:auto;image-rendering:auto;shape-rendering:auto;text-rendering:auto;enable-background:accumulate"
       d="m 935.60938,182.74805 c -17.16799,0 -28.34757,8.36812 -33.59961,16.72851 -5.25205,8.36039 -5.62305,16.83789 -5.62305,16.83789 a 8.5012878,8.5012878 0 0 0 -0.01,0.43555 v 162.81641 c 0,2.67001 -0.48109,2.69787 -0.36718,2.58789 0.1139,-0.10998 -0.0901,0.13444 -1.19922,0.21093 -2.10833,0.14541 -5.34061,-0.78931 -5.67383,-0.88671 -1.09545,-0.56346 -22.55477,-11.59699 -36.97656,-18.15235 -7.89056,-3.58662 -19.15855,-7.62966 -31.58789,-6.61914 -12.42935,1.01052 -25.84074,8.36116 -33.80469,24.28906 -8.3192,16.63842 -2.55547,32.14842 5.05273,40.96289 7.60821,8.81448 16.96094,13.12891 16.96094,13.12891 l -0.49414,-0.25586 c 0,0 28.9735,16.21263 51.67578,29.83399 10.56704,6.34023 17.06487,12.81295 20.89844,17.54882 3.83356,4.73587 4.72656,7.10743 4.72656,7.10743 a 8.5012878,8.5012878 0 0 0 0.48828,0.98632 l 26.47852,45.86133 c 4.43817,7.68715 9.30475,12.66019 13.26367,15.71289 3.95892,3.05271 7.75195,4.44727 7.75195,4.44727 a 8.5012878,8.5012878 0 0 0 2.69141,0.4375 h 119.00778 c 6.4994,0 12.327,-2.29437 16.2793,-5.89649 3.9523,-3.60211 6.0114,-8.04196 7.1641,-11.99414 2.3054,-7.90434 1.3516,-15.08789 1.3516,-15.08789 l 0.027,0.29688 c 0,0 -1.3701,-23.16305 2.3496,-37.04492 0.945,-3.52684 10.0541,-12.70095 19.8379,-27.64063 9.7838,-14.93968 19.0312,-36.78699 19.0312,-70.02734 0,-33.8748 -13.6636,-53.72654 -27.7753,-63.73828 -9.6306,-6.8325 -19.1202,-9.22499 -24.3926,-10.14454 -0.8908,-1.16354 -1.6994,-2.3029 -3.041,-3.64453 -3.9069,-3.9069 -10.0571,-8.62668 -19.1797,-12.64062 -11.8588,-5.21788 -22.3787,-4.519 -29.2266,-3.22266 -0.6767,-0.72356 -1.3563,-1.4401 -2.1836,-2.20117 -4.279,-3.93654 -10.6958,-8.35999 -19.26365,-11.71289 -6.54812,-2.5625 -13.06279,-3.49993 -18.13672,-3.82813 V 216.0957 a 8.5012878,8.5012878 0 0 0 -0.14063,-1.53906 c 0,0 -1.50509,-8.23199 -7.61132,-16.09766 -6.10624,-7.86566 -17.645,-15.71093 -34.75,-15.71093 z m 0,17 c 12.31957,0 17.78182,4.57866 21.32031,9.13672 3.24035,4.17402 4.04604,7.67864 4.17969,8.30078 v 69.52929 a 8.5012878,8.5012878 0 0 0 9.25781,8.4668 c 0,0 10.94023,-0.70359 19.68554,2.71875 6.47023,2.53202 11.29827,5.95379 13.94927,8.39258 0.7251,0.66714 0.771,0.79063 1.1269,1.20898 a 8.5012878,8.5012878 0 0 0 8.291,6.67578 c 0.8768,0 2.0957,-0.20122 3.3477,-0.70117 l 0,0.0137 c 0,0 10.1303,-4.5222 23.3067,1.27539 7.2244,3.17873 11.5355,6.63314 14.0039,9.10157 2.4684,2.46842 2.7402,3.26562 2.7402,3.26562 a 8.5012878,8.5012878 0 0 0 7.1445,4.6875 c 0,0 9.6507,0.52709 19.7325,7.67969 10.0817,7.1526 20.6132,20.32149 20.6132,49.87305 0,30.18598 -7.8465,47.87498 -16.2539,60.71289 -8.4073,12.8379 -18.5867,19.68528 -22.0351,32.55468 -5.0671,18.91061 -2.8828,42.72852 -2.8828,42.72852 a 8.5012878,8.5012878 0 0 0 0.029,0.29688 c 0,0 0.352,4.58568 -0.7754,8.45117 -0.5637,1.93274 -1.4045,3.37788 -2.2949,4.18945 -0.8905,0.81157 -1.8463,1.45898 -4.8282,1.45898 H 938.2793 c -0.23914,-0.0893 -0.36694,-0.0262 -2.07813,-1.3457 -2.26761,-1.74854 -5.57414,-4.94816 -8.92383,-10.75 l -26.47851,-45.86133 0.48828,0.98633 c 0,0 -2.21513,-5.10372 -7.21094,-11.27539 -4.99581,-6.17167 -13.04844,-14.04038 -25.36719,-21.43164 -23.06932,-13.84158 -52.12109,-30.0918 -52.12109,-30.0918 a 8.5012878,8.5012878 0 0 0 -0.49219,-0.25586 c 0,0 -6.54808,-3.2622 -11.40625,-8.89062 -4.85816,-5.62842 -8.12711,-11.42741 -2.71484,-22.25195 5.76752,-11.53505 12.2991,-14.32113 19.97656,-14.94532 7.67747,-0.62418 16.67903,2.20017 23.17383,5.15235 13.979,6.35409 36.90039,18.1289 36.90039,18.1289 a 8.5012878,8.5012878 0 0 0 0.87305,0.38868 c 0,0 5.81906,2.5048 13.08203,2.0039 3.63148,-0.25045 8.16851,-1.39855 11.83789,-4.9414 3.66938,-3.54286 5.55859,-8.98794 5.55859,-14.81836 V 217.12109 c 0.007,-0.10076 0.30441,-4.26203 3.0293,-8.59961 2.75799,-4.39026 6.9465,-8.77343 19.20313,-8.77343 z"
       id="path4534"
       inkscape:connector-curvature="0" />
    <path
       style="fill:#ffffff;stroke:none;stroke-width:17.00087547;stroke-linecap:round;stroke-linejoin:round;stroke-miterlimit:4;stroke-dasharray:none;stroke-opacity:1"
       d="M 368.591,350.79503 V 216.74966 c 0,0 1.30776,-25.50131 30.73236,-25.50131 29.42459,0 34.00176,24.84743 34.00176,24.84743 v 70.61903 c 0,0 12.36147,-1.10501 23.53966,3.2694 15.0381,5.88491 22.48793,15.69311 20.27029,15.69311 0,0 13.73147,-5.88492 30.07847,1.30776 16.34699,7.19268 20.92415,16.347 20.92415,16.347 0,0 48.38711,2.61552 48.38711,66.04186 0,63.42634 -34.18554,79.07023 -38.57891,95.46647 -4.39337,16.39623 -2.61552,39.88666 -2.61552,39.88666 0,0 2.61552,23.53967 -16.347,23.53967 H 399.97724 c 0,0 -8.55913,-2.858 -16.34699,-16.34699 C 267.0312,333.46505 368.47534,353.55455 368.591,350.79503 Z"
       id="path4534-4-4"
       inkscape:connector-curvature="0"
       sodipodi:nodetypes="ccsccscscsscsccc" />
    <path
       style="color:#000000;font-style:normal;font-variant:normal;font-weight:normal;font-stretch:normal;font-size:medium;line-height:normal;font-family:sans-serif;font-variant-ligatures:normal;font-variant-position:normal;font-variant-caps:normal;font-variant-numeric:normal;font-variant-alternates:normal;font-feature-settings:normal;text-indent:0;text-align:start;text-decoration:none;text-decoration-line:none;text-decoration-style:solid;text-decoration-color:#000000;letter-spacing:normal;word-spacing:normal;text-transform:none;writing-mode:lr-tb;direction:ltr;text-orientation:mixed;dominant-baseline:auto;baseline-shift:baseline;text-anchor:start;white-space:normal;shape-padding:0;clip-rule:nonzero;display:inline;overflow:visible;visibility:visible;opacity:1;isolation:auto;mix-blend-mode:normal;color-interpolation:sRGB;color-interpolation-filters:linearRGB;solid-color:#000000;solid-opacity:1;vector-effect:none;fill:#000000;fill-opacity:1;fill-rule:nonzero;stroke:none;stroke-width:17.00087547;stroke-linecap:round;stroke-linejoin:round;stroke-miterlimit:4;stroke-dasharray:none;stroke-dashoffset:0;stroke-opacity:1;color-rendering:auto;image-rendering:auto;shape-rendering:auto;text-rendering:auto;enable-background:accumulate"
       d="m 858.9375,208.82031 a 8.5012878,8.5012878 0 0 0 -5.84375,2.57227 L 746.51172,317.97461 a 8.5012878,8.5012878 0 1 0 12.02148,12.02148 L 865.11523,223.41406 a 8.5012878,8.5012878 0 0 0 -6.17773,-14.59375 z"
       id="path4536"
       inkscape:connector-curvature="0" />
    <path
       style="fill:#ffffff;stroke:none;stroke-width:17.00087547;stroke-linecap:round;stroke-linejoin:round;stroke-miterlimit:4;stroke-dasharray:none;stroke-opacity:1"
       d="M 1462.0689,379.56567 V 216.74958 c 0,0 1.3078,-25.50131 30.7324,-25.50131 29.4246,0 34.0017,24.84744 34.0017,24.84744 v 70.61902 c 0,0 12.3615,-1.10501 23.5397,3.2694 15.0381,5.88492 22.4879,15.69312 20.2703,15.69312 0,0 13.7315,-5.88492 30.0785,1.30776 16.347,7.19267 20.9241,16.34699 20.9241,16.34699 0,0 48.3871,2.61552 48.3871,66.04187 0,63.42634 -34.1855,79.07022 -38.5789,95.46646 -4.3934,16.39624 -2.6155,39.88668 -2.6155,39.88668 0,0 2.6155,23.53966 -16.347,23.53966 h -119.0061 c 0,0 -8.5592,-2.858 -16.347,-16.34699 L 1450.63,486.05819 c 0,0 -6.2158,-14.94933 -29.1016,-28.68082 -22.8858,-13.73147 -51.8982,-29.9634 -51.8982,-29.9634 0,0 -31.7984,-15.1543 -18.067,-42.61726 13.7315,-27.46295 39.8867,-20.27028 54.2721,-13.73148 14.3853,6.5388 37.2711,18.30864 37.2711,18.30864 0,0 18.9625,7.19268 18.9625,-9.8082 z"
       id="path4534-9-4"
       inkscape:connector-curvature="0"
       sodipodi:nodetypes="scsccscscsscscscscsscs" />
    <path
       style="color:#000000;font-style:normal;font-variant:normal;font-weight:normal;font-stretch:normal;font-size:medium;line-height:normal;font-family:sans-serif;font-variant-ligatures:normal;font-variant-position:normal;font-variant-caps:normal;font-variant-numeric:normal;font-variant-alternates:normal;font-feature-settings:normal;text-indent:0;text-align:start;text-decoration:none;text-decoration-line:none;text-decoration-style:solid;text-decoration-color:#000000;letter-spacing:normal;word-spacing:normal;text-transform:none;writing-mode:lr-tb;direction:ltr;text-orientation:mixed;dominant-baseline:auto;baseline-shift:baseline;text-anchor:start;white-space:normal;shape-padding:0;clip-rule:nonzero;display:inline;overflow:visible;visibility:visible;opacity:1;isolation:auto;mix-blend-mode:normal;color-interpolation:sRGB;color-interpolation-filters:linearRGB;solid-color:#000000;solid-opacity:1;vector-effect:none;fill:#000000;fill-opacity:1;fill-rule:nonzero;stroke:none;stroke-width:17.00087547;stroke-linecap:round;stroke-linejoin:round;stroke-miterlimit:4;stroke-dasharray:none;stroke-dashoffset:0;stroke-opacity:1;color-rendering:auto;image-rendering:auto;shape-rendering:auto;text-rendering:auto;enable-background:accumulate"
       d="m 752.39453,265.66992 a 8.5012878,8.5012878 0 0 0 -8.37305,8.6211 v 49.69531 a 8.5012878,8.5012878 0 0 0 8.5,8.5 h 52.31055 a 8.5012878,8.5012878 0 1 0 0,-17 h -43.80859 v -41.19531 a 8.5012878,8.5012878 0 0 0 -8.62891,-8.6211 z"
       id="path4538"
       inkscape:connector-curvature="0" />
    <path
       style="color:#000000;font-style:normal;font-variant:normal;font-weight:normal;font-stretch:normal;font-size:medium;line-height:normal;font-family:sans-serif;font-variant-ligatures:normal;font-variant-position:normal;font-variant-caps:normal;font-variant-numeric:normal;font-variant-alternates:normal;font-feature-settings:normal;text-indent:0;text-align:start;text-decoration:none;text-decoration-line:none;text-decoration-style:solid;text-decoration-color:#000000;letter-spacing:normal;word-spacing:normal;text-transform:none;writing-mode:lr-tb;direction:ltr;text-orientation:mixed;dominant-baseline:auto;baseline-shift:baseline;text-anchor:start;white-space:normal;shape-padding:0;clip-rule:nonzero;display:inline;overflow:visible;visibility:visible;opacity:1;isolation:auto;mix-blend-mode:normal;color-interpolation:sRGB;color-interpolation-filters:linearRGB;solid-color:#000000;solid-opacity:1;vector-effect:none;fill:#000000;fill-opacity:1;fill-rule:nonzero;stroke:none;stroke-width:17.00087547;stroke-linecap:round;stroke-linejoin:round;stroke-miterlimit:4;stroke-dasharray:none;stroke-dashoffset:0;stroke-opacity:1;color-rendering:auto;image-rendering:auto;shape-rendering:auto;text-rendering:auto;enable-background:accumulate"
       d="m 809.41016,208.90234 a 8.5012878,8.5012878 0 1 0 0,17.00196 h 41.19336 v 41.84765 a 8.5012878,8.5012878 0 1 0 17.00195,0 V 217.4043 a 8.5012878,8.5012878 0 0 0 -8.5,-8.50196 z"
       id="path4540"
       inkscape:connector-curvature="0" />
    <path
       style="color:#000000;font-style:normal;font-variant:normal;font-weight:normal;font-stretch:normal;font-size:medium;line-height:normal;font-family:sans-serif;font-variant-ligatures:normal;font-variant-position:normal;font-variant-caps:normal;font-variant-numeric:normal;font-variant-alternates:normal;font-feature-settings:normal;text-indent:0;text-align:start;text-decoration:none;text-decoration-line:none;text-decoration-style:solid;text-decoration-color:#000000;letter-spacing:normal;word-spacing:normal;text-transform:none;writing-mode:lr-tb;direction:ltr;text-orientation:mixed;dominant-baseline:auto;baseline-shift:baseline;text-anchor:start;white-space:normal;shape-padding:0;clip-rule:nonzero;display:inline;overflow:visible;visibility:visible;opacity:1;isolation:auto;mix-blend-mode:normal;color-interpolation:sRGB;color-interpolation-filters:linearRGB;solid-color:#000000;solid-opacity:1;vector-effect:none;fill:#000000;fill-opacity:1;fill-rule:nonzero;stroke:none;stroke-width:17.00087547;stroke-linecap:round;stroke-linejoin:round;stroke-miterlimit:4;stroke-dasharray:none;stroke-dashoffset:0;stroke-opacity:1;color-rendering:auto;image-rendering:auto;shape-rendering:auto;text-rendering:auto;enable-background:accumulate"
       d="m 399.32422,182.74805 c -17.16798,0 -28.34757,8.36812 -33.59961,16.72851 -5.25204,8.36039 -5.62305,16.83789 -5.62305,16.83789 a 8.5012878,8.5012878 0 0 0 -0.0117,0.43555 v 126.25391 c -2.18376,0.18237 -4.59661,0.45815 -7.32812,1.02734 -9.12904,1.9023 -21.07768,7.188 -27.91016,19.92187 -6.83247,12.73388 -8.19335,31.25048 -0.99609,58.50196 7.19436,27.2405 23.04605,63.72205 52.41406,113.71484 4.43817,7.68715 9.30475,12.66019 13.26367,15.71289 3.95892,3.05271 7.75196,4.44727 7.75196,4.44727 a 8.5012878,8.5012878 0 0 0 2.6914,0.4375 h 119.00586 c 6.49934,0 12.32893,-2.29437 16.28125,-5.89649 3.95232,-3.60211 6.01135,-8.04196 7.16406,-11.99414 2.30544,-7.90435 1.35157,-15.08789 1.35157,-15.08789 l 0.0273,0.29688 c 0,0 -1.37004,-23.16304 2.34961,-37.04492 0.94501,-3.52682 10.05412,-12.70095 19.83789,-27.64063 9.78377,-14.93968 19.03125,-36.78698 19.03125,-70.02734 0,-33.8748 -13.6636,-53.72654 -27.77539,-63.73828 -9.63056,-6.83249 -19.12019,-9.22499 -24.39258,-10.14454 -0.89081,-1.16354 -1.69939,-2.30291 -3.04101,-3.64453 -3.9069,-3.90689 -10.05709,-8.62668 -19.17969,-12.64062 -11.85832,-5.21766 -22.37864,-4.51889 -29.22656,-3.22266 -0.67669,-0.72356 -1.35631,-1.4401 -2.1836,-2.20117 -4.27905,-3.93654 -10.6958,-8.36 -19.26367,-11.71289 -6.54812,-2.5625 -13.06279,-3.49993 -18.13672,-3.82813 V 216.0957 a 8.5012878,8.5012878 0 0 0 -0.14062,-1.53906 c 0,0 -1.50704,-8.23199 -7.61328,-16.09766 -6.10625,-7.86566 -17.64304,-15.71093 -34.74805,-15.71093 z m 0,17 c 12.31958,0 17.78182,4.57866 21.32031,9.13672 3.24056,4.17427 4.04613,7.68095 4.17969,8.30273 v 69.52734 a 8.5012878,8.5012878 0 0 0 9.25781,8.4668 c 0,0 10.94024,-0.70359 19.68555,2.71875 6.47023,2.53202 11.29628,5.95379 13.94726,8.39258 0.72608,0.66796 0.7731,0.79261 1.12891,1.21094 a 8.5012878,8.5012878 0 0 0 8.29102,6.67382 c 0.87678,0 2.09562,-0.20121 3.34765,-0.70117 l 0.002,0.0137 c 0,0 10.13027,-4.5222 23.30664,1.27539 7.22439,3.17874 11.53547,6.63313 14.0039,9.10157 2.46843,2.46843 2.74024,3.26562 2.74024,3.26562 a 8.5012878,8.5012878 0 0 0 7.14453,4.6875 c 0,0 9.65065,0.52904 19.73242,7.68164 10.08177,7.15261 20.61133,20.31955 20.61133,49.8711 0,30.18598 -7.84461,47.87498 -16.25196,60.71289 -8.40734,12.8379 -18.58875,19.68526 -22.0371,32.55468 -5.06709,18.91058 -2.88086,42.72852 -2.88086,42.72852 a 8.5012878,8.5012878 0 0 0 0.0293,0.29688 c 0,0 0.35205,4.58568 -0.77539,8.45117 -0.56371,1.93274 -1.4064,3.37788 -2.29687,4.18945 -0.89048,0.81157 -1.84621,1.45898 -4.82813,1.45898 H 401.99414 c -0.23903,-0.0892 -0.36861,-0.026 -2.08008,-1.3457 -2.26761,-1.74854 -5.57218,-4.94816 -8.92187,-10.75 a 8.5012878,8.5012878 0 0 0 -0.0332,-0.0566 c -28.90877,-49.20351 -44.09418,-84.61664 -50.66601,-109.5 -6.57183,-24.88336 -4.42908,-38.72752 -0.46094,-46.12305 3.96814,-7.39552 10.11594,-10.00766 16.39649,-11.3164 3.14027,-0.65437 6.14411,-0.85357 8.5332,-0.94922 1.19454,-0.0478 2.18112,-0.059 3.32031,-0.14258 0.5696,-0.0418 1.10861,-0.0436 2.31445,-0.35156 0.60292,-0.15397 1.40424,-0.31113 2.78321,-1.2168 1.37897,-0.90566 3.76529,-3.54668 3.90429,-6.86328 a 8.5012878,8.5012878 0 0 0 0.008,-0.35547 V 217.12109 c 0.007,-0.10076 0.30441,-4.26203 3.02929,-8.59961 2.75799,-4.39026 6.94651,-8.77343 19.20313,-8.77343 z"
       id="path4534-4"
       inkscape:connector-curvature="0" />
    <path
       style="color:#000000;font-style:normal;font-variant:normal;font-weight:normal;font-stretch:normal;font-size:medium;line-height:normal;font-family:sans-serif;font-variant-ligatures:normal;font-variant-position:normal;font-variant-caps:normal;font-variant-numeric:normal;font-variant-alternates:normal;font-feature-settings:normal;text-indent:0;text-align:start;text-decoration:none;text-decoration-line:none;text-decoration-style:solid;text-decoration-color:#000000;letter-spacing:normal;word-spacing:normal;text-transform:none;writing-mode:lr-tb;direction:ltr;text-orientation:mixed;dominant-baseline:auto;baseline-shift:baseline;text-anchor:start;white-space:normal;shape-padding:0;clip-rule:nonzero;display:inline;overflow:visible;visibility:visible;opacity:1;isolation:auto;mix-blend-mode:normal;color-interpolation:sRGB;color-interpolation-filters:linearRGB;solid-color:#000000;solid-opacity:1;vector-effect:none;fill:#000000;fill-opacity:1;fill-rule:nonzero;stroke:none;stroke-width:17.00087547;stroke-linecap:round;stroke-linejoin:round;stroke-miterlimit:4;stroke-dasharray:none;stroke-dashoffset:0;stroke-opacity:1;color-rendering:auto;image-rendering:auto;shape-rendering:auto;text-rendering:auto;enable-background:accumulate"
       d="m 500.0332,90.798828 a 8.5012878,8.5012878 0 0 0 -5.79882,2.671875 l -56.23243,58.195317 a 8.5012878,8.5012878 0 1 0 12.22461,11.81445 l 56.23438,-58.19531 A 8.5012878,8.5012878 0 0 0 500.0332,90.798828 Z"
       id="path4536-9"
       inkscape:connector-curvature="0" />
    <path
       style="color:#000000;font-style:normal;font-variant:normal;font-weight:normal;font-stretch:normal;font-size:medium;line-height:normal;font-family:sans-serif;font-variant-ligatures:normal;font-variant-position:normal;font-variant-caps:normal;font-variant-numeric:normal;font-variant-alternates:normal;font-feature-settings:normal;text-indent:0;text-align:start;text-decoration:none;text-decoration-line:none;text-decoration-style:solid;text-decoration-color:#000000;letter-spacing:normal;word-spacing:normal;text-transform:none;writing-mode:lr-tb;direction:ltr;text-orientation:mixed;dominant-baseline:auto;baseline-shift:baseline;text-anchor:start;white-space:normal;shape-padding:0;clip-rule:nonzero;display:inline;overflow:visible;visibility:visible;opacity:1;isolation:auto;mix-blend-mode:normal;color-interpolation:sRGB;color-interpolation-filters:linearRGB;solid-color:#000000;solid-opacity:1;vector-effect:none;fill:#000000;fill-opacity:1;fill-rule:nonzero;stroke:none;stroke-width:17.00087547;stroke-linecap:round;stroke-linejoin:round;stroke-miterlimit:4;stroke-dasharray:none;stroke-dashoffset:0;stroke-opacity:1;color-rendering:auto;image-rendering:auto;shape-rendering:auto;text-rendering:auto;enable-background:accumulate"
       d="m 450.65234,90.876953 a 8.5012878,8.5012878 0 1 0 0,17.001957 h 41.19532 v 41.84765 a 8.5012878,8.5012878 0 1 0 17,0 V 99.378906 a 8.5012878,8.5012878 0 0 0 -8.5,-8.501953 z"
       id="path4540-2"
       inkscape:connector-curvature="0" />
    <path
       style="color:#000000;font-style:normal;font-variant:normal;font-weight:normal;font-stretch:normal;font-size:medium;line-height:normal;font-family:sans-serif;font-variant-ligatures:normal;font-variant-position:normal;font-variant-caps:normal;font-variant-numeric:normal;font-variant-alternates:normal;font-feature-settings:normal;text-indent:0;text-align:start;text-decoration:none;text-decoration-line:none;text-decoration-style:solid;text-decoration-color:#000000;letter-spacing:normal;word-spacing:normal;text-transform:none;writing-mode:lr-tb;direction:ltr;text-orientation:mixed;dominant-baseline:auto;baseline-shift:baseline;text-anchor:start;white-space:normal;shape-padding:0;clip-rule:nonzero;display:inline;overflow:visible;visibility:visible;opacity:1;isolation:auto;mix-blend-mode:normal;color-interpolation:sRGB;color-interpolation-filters:linearRGB;solid-color:#000000;solid-opacity:1;vector-effect:none;fill:#000000;fill-opacity:1;fill-rule:nonzero;stroke:none;stroke-width:17.00087547;stroke-linecap:round;stroke-linejoin:round;stroke-miterlimit:4;stroke-dasharray:none;stroke-dashoffset:0;stroke-opacity:1;color-rendering:auto;image-rendering:auto;shape-rendering:auto;text-rendering:auto;enable-background:accumulate"
       d="m 289.20312,90.791016 a 8.5012878,8.5012878 0 0 0 -6.17187,14.494144 l 56.23437,58.19531 a 8.5012878,8.5012878 0 1 0 12.22461,-11.81445 L 295.25781,93.470703 a 8.5012878,8.5012878 0 0 0 -6.05469,-2.679687 z"
       id="path4536-9-5"
       inkscape:connector-curvature="0" />
    <path
       style="color:#000000;font-style:normal;font-variant:normal;font-weight:normal;font-stretch:normal;font-size:medium;line-height:normal;font-family:sans-serif;font-variant-ligatures:normal;font-variant-position:normal;font-variant-caps:normal;font-variant-numeric:normal;font-variant-alternates:normal;font-feature-settings:normal;text-indent:0;text-align:start;text-decoration:none;text-decoration-line:none;text-decoration-style:solid;text-decoration-color:#000000;letter-spacing:normal;word-spacing:normal;text-transform:none;writing-mode:lr-tb;direction:ltr;text-orientation:mixed;dominant-baseline:auto;baseline-shift:baseline;text-anchor:start;white-space:normal;shape-padding:0;clip-rule:nonzero;display:inline;overflow:visible;visibility:visible;opacity:1;isolation:auto;mix-blend-mode:normal;color-interpolation:sRGB;color-interpolation-filters:linearRGB;solid-color:#000000;solid-opacity:1;vector-effect:none;fill:#000000;fill-opacity:1;fill-rule:nonzero;stroke:none;stroke-width:17.00087547;stroke-linecap:round;stroke-linejoin:round;stroke-miterlimit:4;stroke-dasharray:none;stroke-dashoffset:0;stroke-opacity:1;color-rendering:auto;image-rendering:auto;shape-rendering:auto;text-rendering:auto;enable-background:accumulate"
       d="m 289.14453,90.876953 a 8.5012878,8.5012878 0 0 0 -8.5,8.501953 v 50.347654 a 8.5012878,8.5012878 0 1 0 17,0 v -41.84765 h 41.19531 a 8.5012878,8.5012878 0 1 0 0,-17.001957 z"
       id="path4540-2-4"
       inkscape:connector-curvature="0" />
    <path
       style="color:#000000;font-style:normal;font-variant:normal;font-weight:normal;font-stretch:normal;font-size:medium;line-height:normal;font-family:sans-serif;font-variant-ligatures:normal;font-variant-position:normal;font-variant-caps:normal;font-variant-numeric:normal;font-variant-alternates:normal;font-feature-settings:normal;text-indent:0;text-align:start;text-decoration:none;text-decoration-line:none;text-decoration-style:solid;text-decoration-color:#000000;letter-spacing:normal;word-spacing:normal;text-transform:none;writing-mode:lr-tb;direction:ltr;text-orientation:mixed;dominant-baseline:auto;baseline-shift:baseline;text-anchor:start;white-space:normal;shape-padding:0;clip-rule:nonzero;display:inline;overflow:visible;visibility:visible;opacity:1;isolation:auto;mix-blend-mode:normal;color-interpolation:sRGB;color-interpolation-filters:linearRGB;solid-color:#000000;solid-opacity:1;vector-effect:none;fill:#000000;fill-opacity:1;fill-rule:nonzero;stroke:none;stroke-width:17.00087547;stroke-linecap:round;stroke-linejoin:round;stroke-miterlimit:4;stroke-dasharray:none;stroke-dashoffset:0;stroke-opacity:1;color-rendering:auto;image-rendering:auto;shape-rendering:auto;text-rendering:auto;enable-background:accumulate"
       d="m 1492.8008,182.74805 c -17.168,0 -28.3456,8.36813 -33.5977,16.72851 -5.252,8.36039 -5.623,16.83789 -5.623,16.83789 a 8.5012878,8.5012878 0 0 0 -0.012,0.43555 v 162.81641 c 0,2.67001 -0.4811,2.69787 -0.3672,2.58789 0.1139,-0.10998 -0.09,0.13444 -1.1992,0.21093 -2.1084,0.14541 -5.3387,-0.78931 -5.6719,-0.88671 -1.0955,-0.56346 -22.5549,-11.59699 -36.9766,-18.15235 -7.8906,-3.58661 -19.1585,-7.62966 -31.5879,-6.61914 -12.4293,1.01052 -25.8407,8.36116 -33.8047,24.28906 -8.3191,16.63842 -2.5574,32.14842 5.0508,40.96289 7.6082,8.81448 16.961,13.12891 16.961,13.12891 l -0.4922,-0.25586 c 0,0 28.9715,16.21263 51.6738,29.83399 10.567,6.34023 17.0668,12.81296 20.9004,17.54882 3.8335,4.73587 4.7266,7.10743 4.7265,7.10743 a 8.5012878,8.5012878 0 0 0 0.4864,0.98632 l 26.4785,45.86133 c 4.4381,7.68717 9.3067,12.66018 13.2656,15.71289 3.959,3.05271 7.752,4.44727 7.752,4.44727 a 8.5012878,8.5012878 0 0 0 2.6914,0.4375 h 119.0058 c 6.4994,0 12.329,-2.29437 16.2813,-5.89649 3.9523,-3.60211 6.0113,-8.04196 7.164,-11.99414 2.3055,-7.90434 1.3497,-15.08789 1.3497,-15.08789 l 0.029,0.29688 c 0,0 -1.3701,-23.16305 2.3496,-37.04492 0.945,-3.52684 10.0541,-12.70095 19.8379,-27.64063 9.7837,-14.93968 19.0312,-36.78699 19.0312,-70.02734 0,-33.8748 -13.6636,-53.72654 -27.7754,-63.73828 -9.6298,-6.83197 -19.1199,-9.22481 -24.3926,-10.14454 -0.8908,-1.16369 -1.6991,-2.30266 -3.041,-3.64453 -3.9069,-3.9069 -10.0571,-8.62668 -19.1797,-12.64062 -11.8583,-5.21766 -22.3786,-4.51889 -29.2265,-3.22266 -0.6768,-0.72364 -1.3582,-1.44002 -2.1856,-2.20117 -4.279,-3.93654 -10.6938,-8.35999 -19.2617,-11.71289 -6.5482,-2.56253 -13.0647,-3.49994 -18.1387,-3.82813 V 216.0957 a 8.5012878,8.5012878 0 0 0 -0.1406,-1.53906 c 0,0 -1.5051,-8.23198 -7.6113,-16.09766 -6.1062,-7.86567 -17.645,-15.71093 -34.75,-15.71093 z m 0,17 c 12.3196,0 17.7818,4.57867 21.3203,9.13672 3.2403,4.17401 4.048,7.67864 4.1816,8.30078 v 69.52929 a 8.5012878,8.5012878 0 0 0 9.2578,8.4668 c 0,0 10.9383,-0.70359 19.6836,2.71875 6.4703,2.53202 11.2983,5.95379 13.9493,8.39258 0.726,0.66796 0.773,0.7926 1.1289,1.21094 a 8.5012878,8.5012878 0 0 0 8.291,6.67382 c 0.8764,0 2.0942,-0.20165 3.3457,-0.70117 l 0,0.0137 c 0,0 10.1303,-4.5222 23.3067,1.27539 7.2244,3.17873 11.5374,6.63314 14.0058,9.10157 2.4685,2.46842 2.7383,3.26562 2.7383,3.26562 a 8.5012878,8.5012878 0 0 0 7.1445,4.6875 c 0,0 9.6527,0.52709 19.7344,7.67969 10.0818,7.1526 20.6114,20.32149 20.6114,49.87305 0,30.18598 -7.8447,47.87498 -16.252,60.71289 -8.4073,12.8379 -18.5887,19.68528 -22.0371,32.55468 -5.0671,18.91061 -2.8809,42.72852 -2.8809,42.72852 a 8.5012878,8.5012878 0 0 0 0.027,0.29688 c 0,0 0.354,4.58568 -0.7735,8.45117 -0.5637,1.93274 -1.4064,3.37788 -2.2968,4.18945 -0.8905,0.81157 -1.8462,1.45898 -4.8282,1.45898 h -116.9902 c -0.2391,-0.0893 -0.3669,-0.0262 -2.0781,-1.3457 -2.2676,-1.74854 -5.5722,-4.94817 -8.9219,-10.75 l -26.4785,-45.86133 0.4863,0.98633 c 0,0 -2.2151,-5.10372 -7.2109,-11.27539 -4.9958,-6.17167 -13.0465,-14.04038 -25.3653,-21.43164 -23.0693,-13.84158 -52.121,-30.0918 -52.1211,-30.0918 a 8.5012878,8.5012878 0 0 0 -0.4941,-0.25586 c 0,0 -6.5461,-3.2622 -11.4043,-8.89062 -4.8581,-5.62842 -8.129,-11.42741 -2.7168,-22.25195 5.7675,-11.53505 12.2991,-14.32113 19.9766,-14.94532 7.6775,-0.62418 16.6809,2.20016 23.1758,5.15235 13.9789,6.35409 36.9004,18.1289 36.9004,18.1289 a 8.5012878,8.5012878 0 0 0 0.873,0.38868 c 0,0 5.8171,2.5048 13.0801,2.0039 3.6315,-0.25045 8.1685,-1.39855 11.8379,-4.9414 3.6693,-3.54286 5.5605,-8.98794 5.5605,-14.81836 V 217.12109 c 0.01,-0.10076 0.3044,-4.26203 3.0293,-8.59961 2.758,-4.39027 6.9446,-8.77343 19.2012,-8.77343 z"
       id="path4534-9"
       inkscape:connector-curvature="0" />
    <path
       style="color:#000000;font-style:normal;font-variant:normal;font-weight:normal;font-stretch:normal;font-size:medium;line-height:normal;font-family:sans-serif;font-variant-ligatures:normal;font-variant-position:normal;font-variant-caps:normal;font-variant-numeric:normal;font-variant-alternates:normal;font-feature-settings:normal;text-indent:0;text-align:start;text-decoration:none;text-decoration-line:none;text-decoration-style:solid;text-decoration-color:#000000;letter-spacing:normal;word-spacing:normal;text-transform:none;writing-mode:lr-tb;direction:ltr;text-orientation:mixed;dominant-baseline:auto;baseline-shift:baseline;text-anchor:start;white-space:normal;shape-padding:0;clip-rule:nonzero;display:inline;overflow:visible;visibility:visible;opacity:1;isolation:auto;mix-blend-mode:normal;color-interpolation:sRGB;color-interpolation-filters:linearRGB;solid-color:#000000;solid-opacity:1;vector-effect:none;fill:#000000;fill-opacity:1;fill-rule:nonzero;stroke:none;stroke-width:17.00087547;stroke-linecap:round;stroke-linejoin:round;stroke-miterlimit:4;stroke-dasharray:none;stroke-dashoffset:0;stroke-opacity:1;color-rendering:auto;image-rendering:auto;shape-rendering:auto;text-rendering:auto;enable-background:accumulate"
       d="m 1344.7266,279.30078 a 8.5012878,8.5012878 0 0 0 -5.7989,2.67188 l -56.2343,58.19531 a 8.5012878,8.5012878 0 1 0 12.2265,11.81445 l 56.2324,-58.19531 a 8.5012878,8.5012878 0 0 0 -6.4257,-14.48633 z"
       id="path4536-9-2"
       inkscape:connector-curvature="0" />
    <path
       style="color:#000000;font-style:normal;font-variant:normal;font-weight:normal;font-stretch:normal;font-size:medium;line-height:normal;font-family:sans-serif;font-variant-ligatures:normal;font-variant-position:normal;font-variant-caps:normal;font-variant-numeric:normal;font-variant-alternates:normal;font-feature-settings:normal;text-indent:0;text-align:start;text-decoration:none;text-decoration-line:none;text-decoration-style:solid;text-decoration-color:#000000;letter-spacing:normal;word-spacing:normal;text-transform:none;writing-mode:lr-tb;direction:ltr;text-orientation:mixed;dominant-baseline:auto;baseline-shift:baseline;text-anchor:start;white-space:normal;shape-padding:0;clip-rule:nonzero;display:inline;overflow:visible;visibility:visible;opacity:1;isolation:auto;mix-blend-mode:normal;color-interpolation:sRGB;color-interpolation-filters:linearRGB;solid-color:#000000;solid-opacity:1;vector-effect:none;fill:#000000;fill-opacity:1;fill-rule:nonzero;stroke:none;stroke-width:17.00087547;stroke-linecap:round;stroke-linejoin:round;stroke-miterlimit:4;stroke-dasharray:none;stroke-dashoffset:0;stroke-opacity:1;color-rendering:auto;image-rendering:auto;shape-rendering:auto;text-rendering:auto;enable-background:accumulate"
       d="m 1295.3457,279.37891 a 8.5012878,8.5012878 0 1 0 0,17.00195 h 41.1934 v 41.84766 a 8.5012878,8.5012878 0 1 0 17.0019,0 v -50.34961 a 8.5012878,8.5012878 0 0 0 -8.5019,-8.5 z"
       id="path4540-2-0"
       inkscape:connector-curvature="0" />
    <path
       style="color:#000000;font-style:normal;font-variant:normal;font-weight:normal;font-stretch:normal;font-size:medium;line-height:normal;font-family:sans-serif;font-variant-ligatures:normal;font-variant-position:normal;font-variant-caps:normal;font-variant-numeric:normal;font-variant-alternates:normal;font-feature-settings:normal;text-indent:0;text-align:start;text-decoration:none;text-decoration-line:none;text-decoration-style:solid;text-decoration-color:#000000;letter-spacing:normal;word-spacing:normal;text-transform:none;writing-mode:lr-tb;direction:ltr;text-orientation:mixed;dominant-baseline:auto;baseline-shift:baseline;text-anchor:start;white-space:normal;shape-padding:0;clip-rule:nonzero;display:inline;overflow:visible;visibility:visible;opacity:1;isolation:auto;mix-blend-mode:normal;color-interpolation:sRGB;color-interpolation-filters:linearRGB;solid-color:#000000;solid-opacity:1;vector-effect:none;fill:#000000;fill-opacity:1;fill-rule:nonzero;stroke:none;stroke-width:17.00087547;stroke-linecap:round;stroke-linejoin:round;stroke-miterlimit:4;stroke-dasharray:none;stroke-dashoffset:0;stroke-opacity:1;color-rendering:auto;image-rendering:auto;shape-rendering:auto;text-rendering:auto;enable-background:accumulate"
       d="m 1430.418,191.14844 a 8.5012878,8.5012878 0 0 0 -5.7989,2.66992 l -56.2343,58.19531 a 8.5012878,8.5012878 0 1 0 12.2265,11.81445 l 56.2344,-58.19531 a 8.5012878,8.5012878 0 0 0 -6.4277,-14.48437 z"
       id="path4536-9-2-5"
       inkscape:connector-curvature="0" />
    <path
       style="color:#000000;font-style:normal;font-variant:normal;font-weight:normal;font-stretch:normal;font-size:medium;line-height:normal;font-family:sans-serif;font-variant-ligatures:normal;font-variant-position:normal;font-variant-caps:normal;font-variant-numeric:normal;font-variant-alternates:normal;font-feature-settings:normal;text-indent:0;text-align:start;text-decoration:none;text-decoration-line:none;text-decoration-style:solid;text-decoration-color:#000000;letter-spacing:normal;word-spacing:normal;text-transform:none;writing-mode:lr-tb;direction:ltr;text-orientation:mixed;dominant-baseline:auto;baseline-shift:baseline;text-anchor:start;white-space:normal;shape-padding:0;clip-rule:nonzero;display:inline;overflow:visible;visibility:visible;opacity:1;isolation:auto;mix-blend-mode:normal;color-interpolation:sRGB;color-interpolation-filters:linearRGB;solid-color:#000000;solid-opacity:1;vector-effect:none;fill:#000000;fill-opacity:1;fill-rule:nonzero;stroke:none;stroke-width:17.00087547;stroke-linecap:round;stroke-linejoin:round;stroke-miterlimit:4;stroke-dasharray:none;stroke-dashoffset:0;stroke-opacity:1;color-rendering:auto;image-rendering:auto;shape-rendering:auto;text-rendering:auto;enable-background:accumulate"
       d="m 1374.3711,198.95117 a 8.5012878,8.5012878 0 0 0 -8.3731,8.6211 v 50.34961 a 8.5012878,8.5012878 0 0 0 8.5,8.5 h 49.6954 a 8.5012878,8.5012878 0 1 0 0,-17.00196 h -41.1954 v -41.84765 a 8.5012878,8.5012878 0 0 0 -8.6269,-8.6211 z"
       id="path4540-2-0-5"
       inkscape:connector-curvature="0" />
  </g>
</svg>
