<?xml version="1.0" encoding="UTF-8" standalone="no"?>
<!-- Created with Inkscape (http://www.inkscape.org/) -->

<svg
   xmlns:dc="http://purl.org/dc/elements/1.1/"
   xmlns:cc="http://creativecommons.org/ns#"
   xmlns:rdf="http://www.w3.org/1999/02/22-rdf-syntax-ns#"
   xmlns:svg="http://www.w3.org/2000/svg"
   xmlns="http://www.w3.org/2000/svg"
   xmlns:sodipodi="http://sodipodi.sourceforge.net/DTD/sodipodi-0.dtd"
   xmlns:inkscape="http://www.inkscape.org/namespaces/inkscape"
   width="128"
   height="128"
   viewBox="0 0 128 128"
   id="svg2"
   version="1.1"
   inkscape:version="0.92.1 r15371"
   sodipodi:docname="dead_cell_avatar_overlay.svg">
  <defs
     id="defs4" />
  <sodipodi:namedview
     id="base"
     pagecolor="#ffffff"
     bordercolor="#666666"
     borderopacity="1.0"
     inkscape:pageopacity="0.0"
     inkscape:pageshadow="2"
     inkscape:zoom="2.8"
     inkscape:cx="65.576917"
     inkscape:cy="60.712645"
     inkscape:document-units="px"
     inkscape:current-layer="layer1"
     showgrid="false"
     units="px"
     inkscape:window-width="929"
     inkscape:window-height="705"
     inkscape:window-x="200"
     inkscape:window-y="10"
     inkscape:window-maximized="0" />
  <metadata
     id="metadata7">
    <rdf:RDF>
      <cc:Work
         rdf:about="">
        <dc:format>image/svg+xml</dc:format>
        <dc:type
           rdf:resource="http://purl.org/dc/dcmitype/StillImage" />
        <dc:title></dc:title>
      </cc:Work>
    </rdf:RDF>
  </metadata>
  <g
     inkscape:label="Layer 1"
     inkscape:groupmode="layer"
     id="layer1"
     transform="translate(0,-924.36216)">
    <g
       id="g4493"
       transform="matrix(1.1405685,0,0,1.1405685,0.56549704,-138.59588)">
      <path
         inkscape:connector-curvature="0"
         id="path841"
         d="m 24.016271,938.74237 c -1.873551,0.006 -3.913707,0.58562 -6.099099,1.99971 -9.1537867,5.92303 0.454935,17.82483 0.454935,17.82483 l 16.805004,22.9291 c -16.66722,14.41563 -29.0222729,28.99199 -31.257857,31.97269 -3.8784124,5.1712 -3.55494052,7.1088 -2.2621662,9.3712 4.3632299,3.8784 7.1098681,-0.3232 13.7354682,-5.9791 3.102348,-2.4214 15.696272,-11.4972 30.667938,-20.51699 l 26.248599,35.81209 c 0,0 5.026752,7.0848 8.226277,4.7994 3.199524,-2.2855 0,-7.9989 0,-7.9989 L 58.768605,989.08988 c 13.573134,-7.30503 27.490023,-13.22759 37.261961,-13.4355 15.190414,-0.32321 15.190744,-16.48331 13.897924,-19.39211 -0.808,-1.81801 -3.76143,-5.91045 -12.018203,-6.27658 -4.954062,-0.21968 -11.818216,0.90211 -21.271837,4.65931 -9.547049,3.74745 -19.065578,9.51992 -27.930849,16.01513 L 37.114323,949.42578 c 0,0 -4.979341,-10.71171 -13.098052,-10.68341 z"
         style="fill:#ff0000;fill-rule:evenodd;stroke:#000000;stroke-width:2.55999994;stroke-linecap:butt;stroke-linejoin:miter;stroke-miterlimit:4;stroke-dasharray:none;stroke-opacity:1" />
      <path
         sodipodi:nodetypes="cc"
         inkscape:connector-curvature="0"
         id="path847"
         d="m 104.11079,955.61507 c -5.494417,-4.5248 -28.653966,0.0981 -50.879762,15.85646"
         style="fill:none;fill-rule:evenodd;stroke:#ffffff;stroke-width:3.83942938;stroke-linecap:round;stroke-linejoin:round;stroke-miterlimit:4;stroke-dasharray:none;stroke-opacity:0.59607843" />
      <path
         inkscape:connector-curvature="0"
         id="path849"
         d="m 35.753823,984.86475 c 0,0 -29.4112697,26.66395 -32.643277,34.09775"
         style="fill:none;fill-rule:evenodd;stroke:#ffffff;stroke-width:1.91971469;stroke-linecap:round;stroke-linejoin:round;stroke-miterlimit:4;stroke-dasharray:none;stroke-opacity:0.59607843" />
      <path
         sodipodi:nodetypes="cc"
         inkscape:connector-curvature="0"
         id="path851"
         d="m 16.523377,948.66626 c 0.3232,-5.00961 5.351688,-8.46947 10.180826,-6.62562"
         style="fill:none;fill-rule:evenodd;stroke:#ffffff;stroke-width:2.55961967;stroke-linecap:round;stroke-linejoin:round;stroke-miterlimit:4;stroke-dasharray:none;stroke-opacity:0.59607843" />
    </g>
  </g>
</svg>
