<?xml version="1.0" encoding="UTF-8" standalone="no"?>
<!-- Created with Inkscape (http://www.inkscape.org/) -->

<svg
   xmlns:dc="http://purl.org/dc/elements/1.1/"
   xmlns:cc="http://creativecommons.org/ns#"
   xmlns:rdf="http://www.w3.org/1999/02/22-rdf-syntax-ns#"
   xmlns:svg="http://www.w3.org/2000/svg"
   xmlns="http://www.w3.org/2000/svg"
   xmlns:sodipodi="http://sodipodi.sourceforge.net/DTD/sodipodi-0.dtd"
   xmlns:inkscape="http://www.inkscape.org/namespaces/inkscape"
   width="110.851"
   height="128"
   viewBox="0 0 110.851 128"
   id="svg2"
   version="1.1"
   inkscape:version="0.92.1 r15371"
   sodipodi:docname="expected_value_six.svg">
  <defs
     id="defs4" />
  <sodipodi:namedview
     id="base"
     pagecolor="#ffffff"
     bordercolor="#666666"
     borderopacity="1.0"
     inkscape:pageopacity="0.0"
     inkscape:pageshadow="2"
     inkscape:zoom="2.8"
     inkscape:cx="-10.219297"
     inkscape:cy="58.724448"
     inkscape:document-units="px"
     inkscape:current-layer="layer1"
     showgrid="false"
     units="px"
     inkscape:window-width="1121"
     inkscape:window-height="705"
     inkscape:window-x="200"
     inkscape:window-y="10"
     inkscape:window-maximized="0" />
  <metadata
     id="metadata7">
    <rdf:RDF>
      <cc:Work
         rdf:about="">
        <dc:format>image/svg+xml</dc:format>
        <dc:type
           rdf:resource="http://purl.org/dc/dcmitype/StillImage" />
        <dc:title />
      </cc:Work>
    </rdf:RDF>
  </metadata>
  <g
     inkscape:label="Layer 1"
     inkscape:groupmode="layer"
     id="layer1"
     transform="translate(0,-924.36216)">
    <path
       style="color:#000000;clip-rule:nonzero;display:inline;overflow:visible;visibility:visible;opacity:1;isolation:auto;mix-blend-mode:normal;color-interpolation:sRGB;color-interpolation-filters:linearRGB;solid-color:#000000;solid-opacity:1;fill:#95d71c;fill-opacity:1;fill-rule:nonzero;stroke:#000000;stroke-width:2.4;stroke-linecap:round;stroke-linejoin:miter;stroke-miterlimit:4;stroke-dasharray:none;stroke-dashoffset:0;stroke-opacity:1;color-rendering:auto;image-rendering:auto;shape-rendering:auto;text-rendering:auto;enable-background:accumulate"
       d="m 109.64461,1019.6655 -54.218985,31.3034 -54.2189904,-31.3034 3e-7,-62.60667 54.2189901,-31.30334 54.218995,31.30334 z"
       id="path4140" />
    <path
       style="color:#000000;clip-rule:nonzero;display:inline;overflow:visible;visibility:visible;opacity:1;isolation:auto;mix-blend-mode:normal;color-interpolation:sRGB;color-interpolation-filters:linearRGB;solid-color:#000000;solid-opacity:1;fill:none;fill-opacity:1;fill-rule:nonzero;stroke:#ffffff;stroke-width:5;stroke-linecap:round;stroke-linejoin:round;stroke-miterlimit:4;stroke-dasharray:none;stroke-dashoffset:0;stroke-opacity:0.59607843;color-rendering:auto;image-rendering:auto;shape-rendering:auto;text-rendering:auto;enable-background:accumulate"
       d="M 8.89273,974.07649 V 961.4964 l 46.532895,-26.86578 12.337876,7.50432"
       id="path4140-7"
       inkscape:connector-curvature="0"
       sodipodi:nodetypes="cccc" />
    <path
       style="color:#000000;clip-rule:nonzero;display:inline;overflow:visible;visibility:visible;opacity:1;isolation:auto;mix-blend-mode:normal;color-interpolation:sRGB;color-interpolation-filters:linearRGB;solid-color:#000000;solid-opacity:1;fill:none;fill-opacity:1;fill-rule:nonzero;stroke:#000000;stroke-width:5;stroke-linecap:round;stroke-linejoin:round;stroke-miterlimit:4;stroke-dasharray:none;stroke-dashoffset:0;stroke-opacity:0.39215686;color-rendering:auto;image-rendering:auto;shape-rendering:auto;text-rendering:auto;enable-background:accumulate"
       d="m 101.95852,1000.8622 v 14.3658 l -46.532895,26.8657 -12.195021,-7.0043"
       id="path4140-7-7"
       inkscape:connector-curvature="0"
       sodipodi:nodetypes="cccc" />
    <g
       aria-label="6"
       style="font-style:normal;font-variant:normal;font-weight:bold;font-stretch:normal;font-size:98.4386673px;line-height:1.25;font-family:monospace;-inkscape-font-specification:'monospace, Bold';font-variant-ligatures:normal;font-variant-caps:normal;font-variant-numeric:normal;font-feature-settings:normal;text-align:center;letter-spacing:0px;word-spacing:0px;writing-mode:lr-tb;text-anchor:middle;fill:#ffffff;fill-opacity:1;stroke:none;stroke-width:5.27353287"
       id="text4490">
      <path
         d="m 42.148938,984.33346 q 3.556866,-2.98007 6.777272,-4.32591 3.220406,-1.39391 6.873403,-1.39391 7.738587,0 13.554543,6.15242 5.815956,6.15241 5.815956,15.42914 0,8.6037 -5.43143,13.939 -5.383365,5.2873 -14.660055,5.2873 -7.738587,0 -12.737426,-3.605 -4.998838,-3.6049 -7.546323,-11.1032 -2.547485,-7.49821 -2.547485,-16.72684 0,-11.05512 5.046904,-18.36112 5.046904,-7.35406 11.872242,-11.39158 6.825337,-4.03753 14.419726,-4.03753 6.00822,0 9.324757,2.35523 2.162959,1.58617 2.162959,4.03752 0,2.16296 -1.441973,3.653 -1.441972,1.44197 -3.460734,1.44197 -1.153578,0 -3.316537,-1.15358 -1.297776,-0.67292 -2.49942,-0.67292 -4.710444,0 -9.757348,2.69168 -5.046904,2.64362 -8.747967,8.17118 -2.547485,3.84526 -3.701064,9.61315 z m 1.441973,15.23685 q 1.538104,5.76789 4.133655,7.88279 2.643617,2.1149 7.498258,2.1149 4.854641,0 7.450192,-2.5475 2.643617,-2.5475 2.643617,-6.9215 0,-4.99881 -3.028143,-8.31534 -2.980077,-3.31654 -6.729206,-3.31654 -2.980077,0 -6.392745,2.93201 -3.364603,2.93201 -5.575628,8.17118 z"
         style="font-style:normal;font-variant:normal;font-weight:bold;font-stretch:normal;font-size:98.4386673px;font-family:monospace;-inkscape-font-specification:'monospace, Bold';font-variant-ligatures:normal;font-variant-caps:normal;font-variant-numeric:normal;font-feature-settings:normal;text-align:center;writing-mode:lr-tb;text-anchor:middle;fill:#ffffff;stroke-width:5.27353287"
         id="path4487" />
    </g>
  </g>
</svg>
