<?xml version="1.0" encoding="UTF-8" standalone="no"?>
<!-- Created with Inkscape (http://www.inkscape.org/) -->

<svg
   xmlns:dc="http://purl.org/dc/elements/1.1/"
   xmlns:cc="http://creativecommons.org/ns#"
   xmlns:rdf="http://www.w3.org/1999/02/22-rdf-syntax-ns#"
   xmlns:svg="http://www.w3.org/2000/svg"
   xmlns="http://www.w3.org/2000/svg"
   xmlns:sodipodi="http://sodipodi.sourceforge.net/DTD/sodipodi-0.dtd"
   xmlns:inkscape="http://www.inkscape.org/namespaces/inkscape"
   width="110.851"
   height="128"
   viewBox="0 0 110.851 128"
   id="svg2"
   version="1.1"
   inkscape:version="0.92.1 r15371"
   sodipodi:docname="expected_value_eight.svg">
  <defs
     id="defs4" />
  <sodipodi:namedview
     id="base"
     pagecolor="#ffffff"
     bordercolor="#666666"
     borderopacity="1.0"
     inkscape:pageopacity="0.0"
     inkscape:pageshadow="2"
     inkscape:zoom="2.8"
     inkscape:cx="-10.219297"
     inkscape:cy="58.724448"
     inkscape:document-units="px"
     inkscape:current-layer="layer1"
     showgrid="false"
     units="px"
     inkscape:window-width="1121"
     inkscape:window-height="705"
     inkscape:window-x="200"
     inkscape:window-y="10"
     inkscape:window-maximized="0" />
  <metadata
     id="metadata7">
    <rdf:RDF>
      <cc:Work
         rdf:about="">
        <dc:format>image/svg+xml</dc:format>
        <dc:type
           rdf:resource="http://purl.org/dc/dcmitype/StillImage" />
        <dc:title />
      </cc:Work>
    </rdf:RDF>
  </metadata>
  <g
     inkscape:label="Layer 1"
     inkscape:groupmode="layer"
     id="layer1"
     transform="translate(0,-924.36216)">
    <path
       style="color:#000000;clip-rule:nonzero;display:inline;overflow:visible;visibility:visible;opacity:1;isolation:auto;mix-blend-mode:normal;color-interpolation:sRGB;color-interpolation-filters:linearRGB;solid-color:#000000;solid-opacity:1;fill:#95d71c;fill-opacity:1;fill-rule:nonzero;stroke:#000000;stroke-width:2.4;stroke-linecap:round;stroke-linejoin:miter;stroke-miterlimit:4;stroke-dasharray:none;stroke-dashoffset:0;stroke-opacity:1;color-rendering:auto;image-rendering:auto;shape-rendering:auto;text-rendering:auto;enable-background:accumulate"
       d="m 109.64461,1019.6655 -54.218985,31.3034 -54.2189904,-31.3034 3e-7,-62.60667 54.2189901,-31.30334 54.218995,31.30334 z"
       id="path4140" />
    <path
       style="color:#000000;clip-rule:nonzero;display:inline;overflow:visible;visibility:visible;opacity:1;isolation:auto;mix-blend-mode:normal;color-interpolation:sRGB;color-interpolation-filters:linearRGB;solid-color:#000000;solid-opacity:1;fill:none;fill-opacity:1;fill-rule:nonzero;stroke:#ffffff;stroke-width:5;stroke-linecap:round;stroke-linejoin:round;stroke-miterlimit:4;stroke-dasharray:none;stroke-dashoffset:0;stroke-opacity:0.59607843;color-rendering:auto;image-rendering:auto;shape-rendering:auto;text-rendering:auto;enable-background:accumulate"
       d="M 8.89273,974.07649 V 961.4964 l 46.532895,-26.86578 12.337876,7.50432"
       id="path4140-7"
       inkscape:connector-curvature="0"
       sodipodi:nodetypes="cccc" />
    <path
       style="color:#000000;clip-rule:nonzero;display:inline;overflow:visible;visibility:visible;opacity:1;isolation:auto;mix-blend-mode:normal;color-interpolation:sRGB;color-interpolation-filters:linearRGB;solid-color:#000000;solid-opacity:1;fill:none;fill-opacity:1;fill-rule:nonzero;stroke:#000000;stroke-width:5;stroke-linecap:round;stroke-linejoin:round;stroke-miterlimit:4;stroke-dasharray:none;stroke-dashoffset:0;stroke-opacity:0.39215686;color-rendering:auto;image-rendering:auto;shape-rendering:auto;text-rendering:auto;enable-background:accumulate"
       d="m 101.95852,1000.8622 v 14.3658 l -46.532895,26.8657 -12.195021,-7.0043"
       id="path4140-7-7"
       inkscape:connector-curvature="0"
       sodipodi:nodetypes="cccc" />
    <g
       aria-label="8"
       style="font-style:normal;font-variant:normal;font-weight:bold;font-stretch:normal;font-size:98.4386673px;line-height:1.25;font-family:monospace;-inkscape-font-specification:'monospace, Bold';font-variant-ligatures:normal;font-variant-caps:normal;font-variant-numeric:normal;font-feature-settings:normal;text-align:center;letter-spacing:0px;word-spacing:0px;writing-mode:lr-tb;text-anchor:middle;fill:#ffffff;fill-opacity:1;stroke:none;stroke-width:5.27353287"
       id="text4490">
      <path
         d="m 69.364698,986.49642 q 3.797195,2.93201 5.671759,6.68114 1.922631,3.70107 1.922631,8.17114 0,4.9508 -2.451354,9.1325 -2.403288,4.1337 -7.594389,6.537 -5.191102,2.4033 -11.535782,2.4033 -6.344679,0 -11.439649,-2.4033 -5.09497,-2.4033 -7.546324,-6.585 -2.403288,-4.1818 -2.403288,-9.0845 0,-4.47007 1.874565,-8.17114 1.92263,-3.74913 5.719825,-6.68114 -3.316537,-3.07621 -4.998839,-6.53694 -1.682301,-3.46073 -1.682301,-7.306 0,-7.54632 5.76789,-12.97775 5.767891,-5.4795 14.804253,-5.4795 9.036362,0 14.804253,5.4795 5.76789,5.43143 5.76789,12.97775 0,3.89333 -1.682301,7.35407 -1.634236,3.46073 -4.998839,6.48887 z M 65.95203,972.84575 q 0,-3.653 -2.883946,-6.20048 -2.835879,-2.59556 -7.690521,-2.59556 -4.902707,0 -7.786652,2.59556 -2.835879,2.54748 -2.835879,6.20048 0,3.70106 2.835879,6.29661 2.883945,2.54749 7.786652,2.54749 4.854642,0 7.690521,-2.54749 2.883946,-2.59555 2.883946,-6.29661 z m 1.153578,28.98365 q 0,-3.89333 -3.364603,-7.0176 -3.316537,-3.17234 -8.26731,-3.17234 -4.950773,0 -8.315376,3.17234 -3.316537,3.12427 -3.316537,7.1137 0,3.0762 2.883945,5.3834 2.883946,2.2591 8.747968,2.2591 5.912088,0 8.747967,-2.2591 2.883946,-2.3072 2.883946,-5.4795 z"
         style="font-style:normal;font-variant:normal;font-weight:bold;font-stretch:normal;font-size:98.4386673px;font-family:monospace;-inkscape-font-specification:'monospace, Bold';font-variant-ligatures:normal;font-variant-caps:normal;font-variant-numeric:normal;font-feature-settings:normal;text-align:center;writing-mode:lr-tb;text-anchor:middle;fill:#ffffff;stroke-width:5.27353287"
         id="path4487" />
    </g>
  </g>
</svg>
