<?xml version="1.0" encoding="UTF-8" standalone="no"?>
<!-- Created with Inkscape (http://www.inkscape.org/) -->

<svg
   xmlns:dc="http://purl.org/dc/elements/1.1/"
   xmlns:cc="http://creativecommons.org/ns#"
   xmlns:rdf="http://www.w3.org/1999/02/22-rdf-syntax-ns#"
   xmlns:svg="http://www.w3.org/2000/svg"
   xmlns="http://www.w3.org/2000/svg"
   xmlns:sodipodi="http://sodipodi.sourceforge.net/DTD/sodipodi-0.dtd"
   xmlns:inkscape="http://www.inkscape.org/namespaces/inkscape"
   width="128"
   height="128"
   viewBox="0 0 128 128"
   id="svg2"
   version="1.1"
   inkscape:version="0.92.1 r15371"
   sodipodi:docname="versus.svg">
  <defs
     id="defs4" />
  <sodipodi:namedview
     id="base"
     pagecolor="#ffffff"
     bordercolor="#666666"
     borderopacity="1.0"
     inkscape:pageopacity="0.0"
     inkscape:pageshadow="2"
     inkscape:zoom="0.98994949"
     inkscape:cx="62.667057"
     inkscape:cy="71.482019"
     inkscape:document-units="px"
     inkscape:current-layer="layer1"
     showgrid="false"
     units="px"
     inkscape:window-width="953"
     inkscape:window-height="649"
     inkscape:window-x="135"
     inkscape:window-y="54"
     inkscape:window-maximized="0" />
  <metadata
     id="metadata7">
    <rdf:RDF>
      <cc:Work
         rdf:about="">
        <dc:format>image/svg+xml</dc:format>
        <dc:type
           rdf:resource="http://purl.org/dc/dcmitype/StillImage" />
        <dc:title></dc:title>
      </cc:Work>
    </rdf:RDF>
  </metadata>
  <g
     inkscape:label="Layer 1"
     inkscape:groupmode="layer"
     id="layer1"
     transform="translate(0,-924.36216)">
    <g
       transform="matrix(1.8629174,0,0,1.8629174,660.35815,311.52688)"
       id="g1548">
      <path
         style="fill:#ff0000;fill-rule:evenodd;stroke:#000000;stroke-width:3.23019886;stroke-linecap:butt;stroke-linejoin:miter;stroke-miterlimit:4;stroke-dasharray:none;stroke-opacity:1"
         d="m -323.25391,307.63086 c -3.25814,0.0847 -7.58108,1.27749 -12.60547,5.18945 -5.35933,4.17275 -11.517,11.44162 -18.0332,23.75781 -14.50902,27.11695 -20.53134,72.20684 -22.75195,109.28126 -11.36797,-26.23336 -25.77695,-60.69697 -32.76758,-76.91016 0,0 -4.49541,-12.70021 -13.7168,-13.54492 -2.12796,-0.19554 -4.50845,0.24173 -7.14257,1.61132 -11.03331,5.73663 -1.40821,20.28907 -1.40821,20.28907 14.54964,23.32273 36.91568,61.03337 53.29492,89.38086 1.98185,2.87339 4.57421,7.47562 6.92188,7.60156 7.99428,0.16609 7.12463,-6.65482 9.00586,-18.4375 3.57686,-27.50429 5.67613,-75.82875 47.44531,-114.60156 15.54742,-13.8338 1.18997,-30.67903 -2.74219,-32.5625 -1.07519,-0.51502 -2.96589,-1.12058 -5.5,-1.05469 z"
         transform="translate(0,-27.63784)"
         id="path841-6"
         inkscape:connector-curvature="0"
         sodipodi:nodetypes="cscccccccccccc" />
      <path
         style="fill:#ff0000;fill-rule:evenodd;stroke:#000000;stroke-width:3.23019886;stroke-linecap:butt;stroke-linejoin:miter;stroke-miterlimit:4;stroke-dasharray:none;stroke-opacity:1"
         d="m -234.91602,317.32031 c -2.05777,-0.0197 -4.27455,0.0871 -6.6582,0.34375 -24.35848,2.45269 -54.76074,27.34739 -74.98047,47.13672 -4.4101,6.00534 -5.14864,12.75432 2.06641,16.50391 20.75159,8.73534 56.82239,25.04558 78.19726,34.5664 -21.39735,13.00833 -51.98811,27.34138 -92.84179,8.10352 -13.34934,-6.05214 -23.03645,10.2215 -21.125,23.25977 1.20871,7.35982 3.19492,12.22259 13.05664,18.13085 5.91702,3.54495 14.43617,6.08979 26.67187,5.92383 31.23886,-0.20823 72.83634,-28.20414 100.88672,-50.93164 10.74705,-10.65245 2.25693,-17.42321 -7.97851,-20.14062 -23.50435,-6.34421 -60.03534,-17.07702 -88.46289,-25.75586 0.22872,-0.16153 0.42807,-0.31579 0.66601,-0.47852 15.55972,-11.6247 40.71143,-35.6079 81.83008,-20.76562 10.85936,3.74342 17.22267,-9.66446 14.77539,-19.69727 -1.48265,-5.6538 -3.38798,-9.3026 -11.51562,-13.18945 -3.65744,-1.74908 -8.41457,-2.95073 -14.5879,-3.00977 z"
         transform="translate(0,-27.63784)"
         id="path841-6-3"
         inkscape:connector-curvature="0"
         sodipodi:nodetypes="sccccccscccccccss" />
      <path
         sodipodi:nodetypes="cc"
         inkscape:connector-curvature="0"
         id="path847-3"
         d="m -318.67571,287.1361 c -6.26676,-5.16085 -34.02797,6.65035 -47.07032,76.93153"
         style="fill:none;fill-rule:evenodd;stroke:#ffffff;stroke-width:4.37913227;stroke-linecap:round;stroke-linejoin:round;stroke-miterlimit:4;stroke-dasharray:none;stroke-opacity:0.59607843" />
      <path
         sodipodi:nodetypes="cc"
         inkscape:connector-curvature="0"
         id="path851-5"
         d="m -432.16448,339.70764 c 0.36863,-5.7138 6.10397,-9.66001 11.61193,-7.55697"
         style="fill:none;fill-rule:evenodd;stroke:#ffffff;stroke-width:2.91942167;stroke-linecap:round;stroke-linejoin:round;stroke-miterlimit:4;stroke-dasharray:none;stroke-opacity:0.59607843" />
      <path
         sodipodi:nodetypes="cc"
         inkscape:connector-curvature="0"
         id="path847-3-4"
         d="m -223.39705,296.73224 c -24.7283,-10.16085 -61.21454,16.34911 -87.71843,41.24567"
         style="fill:none;fill-rule:evenodd;stroke:#ffffff;stroke-width:4.37913227;stroke-linecap:round;stroke-linejoin:round;stroke-miterlimit:4;stroke-dasharray:none;stroke-opacity:0.59607843" />
      <path
         sodipodi:nodetypes="cc"
         inkscape:connector-curvature="0"
         id="path847-3-4-5"
         d="m -245.75921,400.54267 c -68.95907,34.45454 -91.21454,-22.88166 -100.02612,15.09182"
         style="fill:none;fill-rule:evenodd;stroke:#ffffff;stroke-width:4.37913227;stroke-linecap:round;stroke-linejoin:round;stroke-miterlimit:4;stroke-dasharray:none;stroke-opacity:0.59607843" />
    </g>
  </g>
</svg>
